<svg width="178" height="142" viewBox="0 0 178 142" fill="none" xmlns="http://www.w3.org/2000/svg">
<path fill-rule="evenodd" clip-rule="evenodd" d="M44.73 95.1399H109.34C109.706 95.1399 110.062 95.1005 110.405 95.0256C110.748 95.1005 111.104 95.1399 111.47 95.1399H148.39C151.135 95.1399 153.36 92.9148 153.36 90.1699C153.36 87.4251 151.135 85.1999 148.39 85.1999H144.13C141.385 85.1999 139.16 82.9748 139.16 80.2299C139.16 77.4851 141.385 75.2599 144.13 75.2599H157.62C160.365 75.2599 162.59 73.0348 162.59 70.2899C162.59 67.5451 160.365 65.3199 157.62 65.3199H142C144.745 65.3199 146.97 63.0948 146.97 60.3499C146.97 57.6051 144.745 55.3799 142 55.3799H96.56C99.3049 55.3799 101.53 53.1548 101.53 50.4099C101.53 47.6651 99.3049 45.4399 96.56 45.4399H56.09C53.3451 45.4399 51.12 47.6651 51.12 50.4099C51.12 53.1548 53.3451 55.3799 56.09 55.3799H27.69C24.9452 55.3799 22.72 57.6051 22.72 60.3499C22.72 63.0948 24.9452 65.3199 27.69 65.3199H45.44C48.1849 65.3199 50.41 67.5451 50.41 70.2899C50.41 73.0348 48.1849 75.2599 45.44 75.2599H17.04C14.2952 75.2599 12.07 77.4851 12.07 80.2299C12.07 82.9748 14.2952 85.1999 17.04 85.1999H44.73C41.9851 85.1999 39.76 87.4251 39.76 90.1699C39.76 92.9148 41.9851 95.1399 44.73 95.1399ZM160.46 95.1399C163.205 95.1399 165.43 92.9148 165.43 90.1699C165.43 87.4251 163.205 85.1999 160.46 85.1999C157.715 85.1999 155.49 87.4251 155.49 90.1699C155.49 92.9148 157.715 95.1399 160.46 95.1399Z" fill="#1F1D2C"/>
<g opacity="0.7">
<path fill-rule="evenodd" clip-rule="evenodd" d="M61.4303 98.7775L58.5323 99.1836C56.9747 99.4019 55.5346 98.3198 55.3157 96.7665L47.3884 40.5193C47.1695 38.9661 48.2547 37.53 49.8123 37.3117L105.513 29.5055C107.071 29.2872 108.511 30.3694 108.73 31.9226C108.73 31.9226 109.236 35.519 109.411 36.7561" fill="#262837"/>
<path fill-rule="evenodd" clip-rule="evenodd" d="M63.2293 95.6459L60.5979 96.0188C59.1835 96.2193 57.8776 95.2386 57.6811 93.8285L50.5645 42.7619C50.368 41.3517 51.3553 40.046 52.7696 39.8456L103.348 32.6769C104.763 32.4764 106.069 33.4571 106.265 34.8672L106.877 39.2556C106.91 39.493 109.095 55.2546 113.431 86.5404C113.649 88.1114 112.563 89.5629 111.005 89.7825C110.988 89.7849 110.971 89.7871 110.955 89.7891L63.2293 95.6459Z" fill="#262837"/>
<path d="M61.4303 98.7775L58.5323 99.1836C56.9747 99.4019 55.5346 98.3198 55.3157 96.7665L47.3884 40.5193C47.1695 38.9661 48.2547 37.53 49.8123 37.3117L105.513 29.5055C107.071 29.2872 108.511 30.3694 108.73 31.9226C108.73 31.9226 109.236 35.519 109.411 36.7561" stroke="#EB7C68" stroke-width="1.775" stroke-linecap="round"/>
<path d="M110.004 40.0295L110.36 42.245" stroke="#EB7C68" stroke-width="1.775" stroke-linecap="round"/>
</g>
<g opacity="0.7">
<path d="M71.0706 42.9464C71.1837 41.874 72.1447 41.0958 73.2172 41.2082L129.173 47.0728C130.245 47.1852 131.023 48.1457 130.91 49.2181L124.956 105.707C124.843 106.78 123.882 107.558 122.809 107.445L66.8539 101.581C65.7814 101.468 65.0036 100.508 65.1167 99.4354L71.0706 42.9464Z" fill="#262837" stroke="#EB7C68" stroke-width="1.775"/>
<path fill-rule="evenodd" clip-rule="evenodd" d="M75.9655 49.1708C76.0888 48.0009 77.1372 47.1519 78.3072 47.2745L122.929 51.9513C124.099 52.0739 124.948 53.1217 124.824 54.2916L120.88 91.7156C120.757 92.8855 119.708 93.7345 118.538 93.6118L73.9161 88.935C72.7462 88.8124 71.8977 87.7646 72.021 86.5947L75.9655 49.1708Z" fill="#262837"/>
<path fill-rule="evenodd" clip-rule="evenodd" d="M78.1355 78.0133L85.1202 73.3156C86.279 72.5362 87.832 72.7143 88.7833 73.7355L93.9001 79.2287C94.1541 79.5014 94.5759 79.5311 94.8659 79.2967L105.8 70.4618C107.112 69.4021 109.051 69.7105 109.968 71.1244L117.081 82.0951L118.102 83.7933L117.613 89.5619C117.579 89.9599 117.224 90.252 116.827 90.208L76.2654 85.7141C75.8808 85.6715 75.6014 85.3289 75.6369 84.9436L76.1744 79.1226L78.1355 78.0133Z" fill="#262837"/>
<path d="M76.8482 49.2633C76.9201 48.5808 77.5317 48.0856 78.2142 48.1571L122.836 52.8339C123.519 52.9055 124.014 53.5167 123.942 54.1991L119.997 91.6231C119.925 92.3055 119.314 92.8008 118.631 92.7292L74.0092 88.0524C73.3267 87.9809 72.8318 87.3697 72.9037 86.6873L76.8482 49.2633Z" stroke="#EB7C68" stroke-width="1.775"/>
<ellipse rx="4.27187" ry="4.26013" transform="matrix(0.994552 0.104238 -0.10482 0.994491 86.8868 61.0242)" fill="#1F1D2C" stroke="#EB7C68" stroke-width="1.775"/>
<path d="M76.7031 79.1116C79.5059 77.1815 85.1113 73.3215 85.1113 73.3215C86.2744 72.5392 87.8356 72.7181 88.7905 73.7432L93.8981 79.2265C94.153 79.5002 94.577 79.5301 94.868 79.2949L105.79 70.4699C107.012 69.4824 108.805 69.6699 109.796 70.8885C109.86 70.9673 109.919 71.0494 109.975 71.1345C109.975 71.1345 116.36 81.2383 117.852 83.5992" stroke="#EB7C68" stroke-width="1.775" stroke-linecap="round"/>
</g>
</svg>
