<svg width="190" height="142" viewBox="0 0 190 142" fill="none" xmlns="http://www.w3.org/2000/svg">
<path fill-rule="evenodd" clip-rule="evenodd" d="M47.88 95.1399H117.04C117.431 95.1399 117.813 95.1005 118.18 95.0256C118.547 95.1005 118.929 95.1399 119.32 95.1399H158.84C161.778 95.1399 164.16 92.9148 164.16 90.1699C164.16 87.4251 161.778 85.1999 158.84 85.1999H154.28C151.342 85.1999 148.96 82.9748 148.96 80.2299C148.96 77.4851 151.342 75.2599 154.28 75.2599H168.72C171.658 75.2599 174.04 73.0348 174.04 70.2899C174.04 67.5451 171.658 65.3199 168.72 65.3199H152C154.938 65.3199 157.32 63.0948 157.32 60.3499C157.32 57.6051 154.938 55.3799 152 55.3799H103.36C106.298 55.3799 108.68 53.1548 108.68 50.4099C108.68 47.6651 106.298 45.4399 103.36 45.4399H60.04C57.1018 45.4399 54.72 47.6651 54.72 50.4099C54.72 53.1548 57.1018 55.3799 60.04 55.3799H29.64C26.7018 55.3799 24.32 57.6051 24.32 60.3499C24.32 63.0948 26.7018 65.3199 29.64 65.3199H48.64C51.5782 65.3199 53.96 67.5451 53.96 70.2899C53.96 73.0348 51.5782 75.2599 48.64 75.2599H18.24C15.3018 75.2599 12.92 77.4851 12.92 80.2299C12.92 82.9748 15.3018 85.1999 18.24 85.1999H47.88C44.9418 85.1999 42.56 87.4251 42.56 90.1699C42.56 92.9148 44.9418 95.1399 47.88 95.1399ZM171.76 95.1399C174.698 95.1399 177.08 92.9148 177.08 90.1699C177.08 87.4251 174.698 85.1999 171.76 85.1999C168.822 85.1999 166.44 87.4251 166.44 90.1699C166.44 92.9148 168.822 95.1399 171.76 95.1399Z" fill="#1F1D2C"/>
<path opacity="0.7" d="M126.92 105.08H143.965M48.64 105.08H64.9451H48.64ZM38.8572 105.08H44.08H38.8572ZM147.537 105.08H149.72H147.537Z" stroke="#EB7C68" stroke-width="1.9" stroke-linecap="round" stroke-linejoin="round"/>
<path opacity="0.7" d="M74.48 30.7449L82.9157 39.5866M114.076 30.7449L105.64 39.5866L114.076 30.7449ZM94.24 27.6899V39.5866V27.6899Z" stroke="#FFB1A3" stroke-width="1.9" stroke-linecap="round" stroke-linejoin="round"/>
<g opacity="0.7">
<path fill-rule="evenodd" clip-rule="evenodd" d="M70.5261 50.4099H118.107L113.846 56.3809L119.527 60.3616H69.1058L75.4973 56.3809L70.5261 50.4099Z" fill="#262837"/>
<rect x="67.64" y="58.9299" width="53.96" height="53.25" rx="1.52" fill="#1F1D2C"/>
<path fill-rule="evenodd" clip-rule="evenodd" d="M71.1247 88.0442V63.6481C71.1247 62.6429 72.0065 61.8281 73.0942 61.8281L119.436 107.327C119.436 108.667 118.288 109.753 116.872 109.753H73.6897C72.2731 109.753 71.1247 108.667 71.1247 107.327V98.26V95.8003V88.0442ZM71.1247 93.3115V90.5792V93.3115Z" fill="#262837"/>
<path d="M68.4 88.3686V61.6883C68.4 60.5891 69.3656 59.698 70.5567 59.698H119.898C120.674 59.698 121.303 60.2921 121.303 61.0249V109.456C121.303 110.922 120.045 112.11 118.494 112.11H71.2087C69.6575 112.11 68.4 110.922 68.4 109.456V99.5408V96.8508M68.4 94.129V91.1409" stroke="#EB7C68" stroke-width="1.9" stroke-linecap="round"/>
<path d="M69.816 59.698V51.7367C69.816 51.0039 70.3866 50.4098 71.0906 50.4098L118.253 50.4098C118.957 50.4098 119.527 51.0039 119.527 51.7367V59.698" stroke="#EB7C68" stroke-width="1.9"/>
<path d="M82.954 73.6304C84.3267 73.6304 85.4396 72.5908 85.4396 71.3084C85.4396 70.0259 84.3267 68.9863 82.954 68.9863C81.5812 68.9863 80.4684 70.0259 80.4684 71.3084C80.4684 72.5908 81.5812 73.6304 82.954 73.6304Z" fill="#262837" stroke="#EB7C68" stroke-width="1.9" stroke-linecap="round"/>
<path d="M106.389 73.6304C107.762 73.6304 108.875 72.5908 108.875 71.3084C108.875 70.0259 107.762 68.9863 106.389 68.9863C105.017 68.9863 103.904 70.0259 103.904 71.3084C103.904 72.5908 105.017 73.6304 106.389 73.6304Z" fill="#262837" stroke="#EB7C68" stroke-width="1.9" stroke-linecap="round"/>
<path d="M106.034 73.6305C106.034 79.4931 100.947 84.2456 94.6717 84.2456C88.3963 84.2456 83.3091 79.4931 83.3091 73.6305" stroke="#EB7C68" stroke-width="1.9" stroke-linecap="round"/>
<path d="M70.5695 51.0713L75.5691 55.6818C75.8678 55.9573 75.8709 56.4068 75.576 56.6859C75.525 56.7342 75.4668 56.7754 75.4033 56.8082L69.816 59.6981" stroke="#EB7C68" stroke-width="1.9" stroke-linecap="round"/>
<path d="M118.894 51.1194L114.11 55.6779C113.816 55.9579 113.821 56.4074 114.121 56.682C114.171 56.7278 114.227 56.7669 114.289 56.7983L119.979 59.6981" stroke="#EB7C68" stroke-width="1.9" stroke-linecap="round"/>
</g>
</svg>
