<svg width="198" height="229" viewBox="0 0 198 229" fill="none" xmlns="http://www.w3.org/2000/svg">
<path fill-rule="evenodd" clip-rule="evenodd" d="M52.5545 51.5704C52.3201 55.3994 52.0856 59.2278 51.8516 63.0567C53.3587 62.6228 62.9451 59.8022 62.353 62.662C61.928 64.7132 59.2329 66.9322 57.8597 68.3603C56.596 69.6751 55.2944 70.9558 53.96 72.1989C56.4127 71.2599 58.886 70.3707 61.3769 69.539C63.2618 68.9095 65.1607 68.2952 67.0921 67.8234C67.809 67.6481 69.7447 66.9332 70.4221 67.4206C72.2018 68.7016 62.5453 78.1356 61.2225 79.4654C63.0928 78.5955 65.0083 77.8052 66.956 77.1272C68.3625 76.6378 72.7074 74.7668 73.9519 76.3645C75.284 78.0738 71.9839 81.9988 71.0685 83.2432C69.7573 85.0266 68.3363 86.7372 66.8451 88.3731C73.0425 93.9393 80.3252 98.8939 88.0758 101.973C93.7586 104.231 99.341 104.806 105.337 103.567C111.498 102.294 117.406 99.8524 123.022 97.0611C126.321 95.4215 129.576 93.6474 132.677 91.6546C131.398 90.0997 130.157 88.5122 128.951 86.9006C127.23 84.5996 125.115 82.0854 124.134 79.3462C123.173 76.6654 126.776 77.1887 128.505 77.3344C131.007 77.5453 133.504 77.9925 135.956 78.5277C134.222 77.3215 132.519 76.067 130.851 74.7718C128.676 73.0837 125.775 71.1752 124.352 68.7468C123.1 66.6115 125.847 67.1507 127.117 67.4303C130.146 68.0976 133.093 69.2345 135.982 70.3435C138.097 71.1556 140.2 72.0063 142.282 72.9021C140.99 71.7785 139.741 70.6012 138.54 69.3806C136.926 67.74 134.75 65.7362 134.027 63.4771C132.554 58.8758 142.464 62.3465 144.156 63.0567C143.843 58.2904 143.531 53.5241 143.219 48.7578C130.096 52.2495 116.974 55.7418 103.851 59.2337C102.433 59.6112 100.658 60.433 99.179 60.4769C97.8396 60.517 96.2216 59.9137 94.9154 59.6644L71.1685 55.1272C64.9638 53.9415 58.7591 52.7561 52.5545 51.5704Z" fill="#FFB1A3"/>
<path fill-rule="evenodd" clip-rule="evenodd" d="M193.594 215.509C192.178 216.32 190.518 216.946 188.944 217.365C188.02 217.612 186.493 218.374 185.68 217.676C185.291 217.341 185.201 216.579 184.971 216.138C184.607 215.439 184.09 214.836 183.605 214.218C182.43 212.721 181.207 211.277 179.928 209.869C179.322 209.202 178.214 207.645 177.146 207.747C175.815 207.875 175.847 209.718 176.18 210.659C177.243 213.657 180.459 216.27 182.559 218.528C182.025 219.35 179.092 219.252 178.277 219.06C177.034 218.766 176.908 217.881 176.34 216.868C175.013 214.501 172.32 213.176 170.106 211.785C169.299 211.277 167.584 209.871 166.532 210.225C165.535 210.56 165.578 211.833 165.896 212.665C166.375 213.921 167.739 214.793 168.748 215.587C170.094 216.646 171.324 217.798 172.445 219.094C170.829 219.226 169.219 219.454 167.607 219.587C165.658 219.747 164.033 218.678 162.239 218.071C160.571 217.508 158.91 217.032 157.27 216.382C155.429 215.653 153.501 215.4 151.644 214.76C144.356 212.25 137.215 209.093 130.193 205.911C126.846 204.394 123.569 202.877 120.082 201.691C117.541 200.826 113.548 199.102 112.94 196.075C112.62 194.476 113.788 192.756 113.96 191.158C114.162 189.278 114.003 187.21 113.431 185.406C112.926 183.817 112.089 182.346 111.43 180.821C110.662 179.043 111.35 179.071 112.842 178.869C114.627 178.627 116.711 177.622 118.39 176.967C120.323 176.213 122.24 175.159 124.011 174.075C125.612 173.095 127.006 171.831 128.281 170.459C129.578 169.063 130.418 167.408 131.672 165.978C136.3 171.67 140.699 177.449 145.617 182.895C147.938 185.465 150.462 187.591 153.323 189.545C154.517 190.362 155.702 191.294 157.003 191.939C158.631 192.747 160.45 193.248 162.122 193.985C168.535 196.811 174.655 199.899 180.638 203.545C183.532 205.309 185.961 207.331 188.51 209.543C189.303 210.232 195.801 214.246 193.594 215.509ZM118.367 168.878C117.331 169.348 116.343 169.957 115.237 170.259C115.551 168.352 117.33 165.475 119.612 165.792C120.484 165.912 121.142 166.589 120.759 167.523C120.41 168.371 119.105 168.544 118.367 168.878ZM46.2323 117.15C45.0575 117.799 43.9628 118.177 43.2739 116.784C43.7842 116.682 46.1021 116.373 46.2323 117.15ZM44.2763 113.214C43.3682 112.939 44.0943 112.649 44.4068 112.317C44.6501 112.059 45.456 111.151 45.7379 111.002C46.9833 110.342 47.9459 112.797 48.5416 113.594C47.1318 113.468 45.6486 113.63 44.2763 113.214ZM53.9839 121.713C52.263 122.005 52.4539 119.852 52.5053 118.761C52.8683 119.204 55.3256 121.486 53.9839 121.713ZM59.6868 117.995C57.5887 118.349 56.2025 114.724 56.5787 113.138C56.9094 111.741 58.5354 110.962 59.8299 110.756C61.0844 110.556 62.8312 110.828 63.2037 112.275C63.5331 113.554 61.085 117.759 59.6868 117.995ZM109.35 172.714C107.842 173.178 106.365 173.236 104.849 173.691C103.13 174.207 101.539 174.161 99.8158 174.512C99.1149 174.655 97.2243 175.676 96.5406 175.448C95.8633 175.222 94.8831 173.12 94.494 172.574C97.5421 171.307 100.143 169.671 102.152 167.001C103.749 164.878 105.462 161.698 104.457 158.957C103.324 155.868 99.4164 155.197 96.8113 156.488C95.5788 157.098 94.3572 157.857 93.3409 158.787C92.1791 159.85 91.7222 161.011 90.9695 162.322C90.2085 163.648 89.6743 162.91 88.9136 161.784C88.2638 160.821 88.3484 159.849 87.5363 158.9C87.1219 158.415 86.4801 157.947 86.264 157.321C86.1268 156.925 86.4157 156.221 86.1557 155.909C85.7902 155.47 85.3452 155.985 85.0388 155.593C84.8163 155.309 84.889 154.66 84.6592 154.304C84.4597 154.101 84.2382 153.928 83.9929 153.785C83.6954 153.638 83.6412 153.454 83.8298 153.233C83.5934 152.795 83.8212 152.647 83.3149 152.115C82.5253 151.284 81.8054 150.489 81.2433 149.509C80.9866 149.06 81.0119 148.395 80.6928 148.007C80.2549 147.474 79.5254 147.554 79.1489 146.894C78.8135 146.306 79.038 145.278 78.4848 144.744C78.1933 144.661 77.9014 144.579 77.6096 144.498C77.3898 144.285 77.2619 144.026 77.2254 143.722C76.9183 143.249 76.8572 142.693 76.4694 142.193C75.7269 141.238 74.7285 140.355 74.0728 139.348C73.3835 138.288 73.749 138.11 74.9463 137.731C76.0261 137.389 77.0122 137.071 78.0133 136.489C82.6408 133.796 87.028 126.652 79.6828 124.47C76.9571 123.66 74.7179 121.482 71.6954 122.338C70.3852 122.709 69.1424 123.499 68.1649 124.437C67.4896 125.085 66.864 126.819 66.035 127.151C64.5441 127.748 65.1743 126.257 64.7513 125.571C64.5491 125.244 63.736 124.867 63.4345 124.569C63.0809 124.221 62.7389 123.78 62.4932 123.348C62.0373 122.547 61.7584 122.1 61.101 121.448C60.8533 121.202 59.6158 119.929 60.7317 120.096C60.2799 118.718 60.9393 118.511 61.851 117.505C62.9215 116.323 64.0268 114.681 64.0331 113.025C64.0454 109.846 60.2782 108.421 57.9121 110.308C57.4307 110.692 54.5832 114.399 55.1659 112.035C55.48 110.76 58.3886 107.432 59.737 108.293C58.2259 106.091 54.7545 111.438 53.9444 112.532C53.2544 111.262 53.2056 110.269 52.0641 109.285C51.1347 110.776 51.6255 109.147 51.4206 108.816C50.978 108.1 51.221 108.918 50.981 108.664C50.6822 108.348 50.2117 108.098 49.8936 107.679C49.3487 108.418 49.5665 107.623 49.3995 107.347C49.0094 106.702 49.1601 106.328 48.4914 105.766C48.0047 105.358 47.0458 104.724 46.3907 104.666C45.6353 104.599 45.4261 104.889 44.6565 104.674C43.6773 104.402 42.4451 103.984 42.9189 105.622C43.2632 106.812 44.6624 107.488 44.9689 108.704C45.2774 109.928 44.0671 111.161 43.4801 112.165C42.726 113.452 42.1094 113.347 40.7435 113.637C39.8706 113.823 38.7055 114.22 39.4542 115.279C39.9888 116.035 41.2418 115.876 41.9474 116.324C42.9369 116.952 42.9233 118.502 44.1866 118.771C45.5778 119.068 46.3747 117.519 47.5478 117.145C48.3818 116.879 50.9657 116.909 51.6221 117.535C52.5166 118.388 51.7437 120.019 51.9688 121.078C52.3038 122.651 53.3673 122.747 54.7124 122.797C56.3682 122.859 56.9502 124.449 57.8408 125.71C59.9266 128.664 61.7395 131.813 63.8761 134.727C64.822 136.018 66.2056 137.166 66.9799 138.567C67.9362 140.296 66.6087 141.294 65.4629 142.535C63.9657 144.158 62.8481 146.004 61.5495 147.777C60.3957 149.353 58.9617 148.96 57.1179 148.96C57.5286 148.113 58.023 147.585 59.0341 147.688C57.9769 146.397 57.1315 147.874 56.4459 148.691C55.4538 149.874 54.1605 150.159 52.8862 150.937C52.4353 151.212 49.9799 152.996 50.726 153.605C50.8106 153.674 54.8754 151 55.3382 150.755C55.3382 151.742 55.1224 152.768 55.2609 153.749C55.3621 154.469 55.8682 155.22 55.7602 155.968C55.556 157.381 53.7302 158.494 52.9466 159.594C52.3566 160.423 52.499 161.076 52.1989 161.965C51.9249 162.777 52.0687 162.531 51.3864 162.782C49.9972 163.292 47.6587 163.017 46.4006 162.291C45.6197 161.841 45.021 161.129 44.3865 160.502C43.9087 160.029 42.7068 159.221 42.574 158.559C42.3462 157.42 44.6083 155.303 45.0559 154.127C46.3203 150.81 44.1521 148.232 40.778 148.044C41.8179 147.242 43.1069 147.846 44.2029 148.152C42.3292 145.556 39.1288 147.692 37.5394 149.457C36.4533 146.711 35.9297 143.815 35.2663 140.952C34.8144 139.003 33.0941 135.524 33.8615 133.516C34.2323 132.546 35.2796 132.005 36.0037 131.332C36.8268 130.568 37.5317 129.654 38.1334 128.707C39.5508 126.478 40.3696 123.663 38.4176 121.466C39.0106 121.369 39.6039 121.271 40.1969 121.174C39.2324 120.267 37.7104 120.709 36.4586 120.44C35.6644 120.27 33.3787 120.38 32.8484 119.931C32.2106 119.39 32.6193 116.903 32.6422 116.167C32.6947 114.447 32.8385 112.793 33.0284 111.083C33.2083 109.468 33.1722 107.723 33.5059 106.136C33.7768 104.849 34.6427 104.456 35.6418 103.698C38.0298 101.883 39.9758 99.6761 39.1603 96.549C39.4492 96.5032 39.7381 96.4574 40.0269 96.4116C39.0926 95.7359 37.8837 95.9816 36.8444 95.6243C37.7987 92.9382 39.9094 88.216 43.3366 87.9617C43.4545 89.1627 43.3738 90.5907 44.184 91.5848C45.1064 92.7164 46.7253 92.8306 47.9748 92.232C49.1087 91.6881 50.1728 90.5359 50.6954 89.3977C51.0491 88.6271 50.9853 87.3242 51.6059 86.7136C52.4379 85.8941 58.1758 86.3885 58.0001 87.7711C57.8965 88.5839 56.3622 89.9502 55.9336 90.6707C55.1486 91.9892 54.5204 93.4153 54.2322 94.9297C53.795 97.2294 54.0483 100.265 56.3835 101.474C59.0394 102.849 62.276 101.101 64.4541 99.5901C65.6501 98.7607 66.8086 97.8453 67.901 96.8837C68.483 96.3724 69.0677 95.8451 69.5807 95.2634C69.9596 94.8341 70.262 94.1415 70.7282 93.8197C71.8296 93.06 72.909 94.349 73.841 95.0001C75.359 96.0609 76.8695 97.068 78.4991 97.9509C81.8054 99.7418 84.8286 102.115 87.7521 104.47C90.6926 106.84 93.7247 109.278 96.1067 112.23C94.664 113.117 94.9213 113.348 94.2795 114.931C93.824 116.055 93.1964 117.011 93.1241 118.259C92.9989 120.413 94.3818 122.249 96.4809 122.726C97.655 122.993 98.7732 122.779 99.8606 122.299C100.706 121.927 101.548 121.008 102.432 120.78C104.073 120.357 105.387 123.458 106.307 124.55C110.393 129.402 114.713 134.061 118.561 139.111C118.987 139.67 120.253 140.762 120.356 141.503C120.504 142.566 118.831 143.58 118.138 144.189C117.773 144.509 113.91 148.143 115.207 148.721C115.577 148.886 116.659 146.656 116.93 146.465C117.943 145.751 117.177 147.151 117.116 147.858C116.965 149.617 118.173 150.575 119.871 150.352C121.683 150.114 123.295 148.684 124.417 147.333C125.821 148.96 128.018 151.42 128.424 153.594C128.684 154.983 127.482 158.382 129.725 158.665C130.068 158.708 131.307 157.789 131.538 158.311C131.73 158.746 130.391 159.491 130.198 159.635C129.372 160.251 128.874 160.911 128.207 161.658C127.425 162.534 126.356 163.272 125.476 164.111C124.548 164.996 122.714 167.398 121.49 166.237C120.875 165.654 121.037 164.892 120.052 164.549C119.155 164.238 118.018 164.633 117.185 164.979C116.246 165.367 113.155 166.787 112.812 167.956C112.339 169.568 114.894 167.63 115.348 167.347C114.83 168.662 114.544 170.566 113.225 171.333C112.129 171.97 110.552 172.345 109.35 172.714ZM91.8288 162.769C92.706 159.949 97.8791 154.922 101.149 156.495C97.3382 157.293 94.3144 159.901 91.8288 162.769ZM93.7632 170.843C92.4882 170.132 92.5569 168.068 92.112 166.861C91.8564 166.168 91.3454 165.662 91.4958 164.893C91.6714 163.992 92.8212 162.989 93.4332 162.34C95.359 160.293 98.7483 157.497 101.848 157.967C105.794 158.564 103.119 163.861 101.775 165.685C100.63 167.24 96.2179 172.211 93.7632 170.843ZM84.5586 167.395C80.2917 167.11 76.0394 166.728 71.8306 165.945C70.3384 165.667 69.0883 165.708 69.942 163.993C70.2239 163.426 71.9235 159.878 72.3074 159.979C72.5348 160.04 72.483 162.479 72.5497 162.758C72.8512 164.014 73.6972 165.184 75.1236 165.105C77.4575 164.974 78.9616 161.957 80.1904 160.337C81.1749 161.661 81.8875 163.131 82.8769 164.432C83.3501 165.055 84.9966 166.502 84.5586 167.395ZM59.5427 150.645C58.8269 152.288 57.3872 153.85 56.3858 155.338C55.8197 154.14 55.4216 151.389 56.7643 150.503C57.2726 150.168 59.9953 149.606 59.5427 150.645ZM74.3417 155.537C74.5386 154.905 74.7567 154.277 75.0001 153.661C75.4175 154.975 75.631 155.014 74.3417 155.537ZM77.994 156.882C78.512 157.76 79.3753 158.624 79.2398 159.726C79.1372 160.562 78.3822 161.418 77.843 162C76.9505 162.963 74.9736 164.811 73.6806 163.532C72.6005 162.464 72.9767 159.527 73.4791 158.325C74.1963 156.608 76.7596 154.791 77.994 156.882ZM75.46 155.083C75.7568 154.966 75.1333 153.049 75.712 152.859C76.2167 154.01 76.6925 154.321 75.46 155.083ZM67.3066 129.297C67.1144 128.59 66.6735 128.62 66.8322 127.746C66.9364 127.173 67.3913 126.561 67.7363 126.107C68.4239 125.202 69.331 124.456 70.3118 123.891C72.3827 122.699 75.2262 122.204 77.0803 124.07C75.3471 124.343 70.0336 126.054 69.9997 128.425C71.9272 128.054 73.4429 126.118 75.376 125.508C76.9628 125.007 78.6833 125.042 80.2618 125.571C84.5826 127.018 82.7859 130.753 80.3472 133.178C78.8995 134.618 77.1637 135.694 75.2661 136.436C74.3879 136.779 73.849 136.817 72.9857 136.644C72.824 136.612 72.6351 136.312 72.4412 136.248C71.9594 136.088 72.0992 136.629 71.7024 136.386C71.3561 136.174 70.6176 134.808 70.3822 134.417C70.0074 133.794 69.8327 133.189 69.3725 132.62C68.912 132.051 68.6879 131.289 68.2619 130.775C68.0574 130.527 67.4966 130.537 67.3461 130.296C67.12 129.933 67.4079 129.668 67.3066 129.297ZM60.671 157.148C61.6531 155.442 63.3332 153.993 64.6331 152.502C64.7128 154.953 62.9554 156.632 60.671 157.148ZM61.9981 157.936C64.0262 157.223 65.1434 155.515 65.3503 153.446C65.6129 150.824 67.2592 149.447 68.2503 147.092C68.6304 146.189 69.0734 143.218 70.5466 144.069C71.0519 144.36 71.3518 145.457 71.6151 145.953C72.2522 147.151 72.9767 148.314 73.6524 149.49C74.2026 150.449 75.0274 151.413 74.7846 152.566C74.5728 153.572 73.8918 154.644 73.4927 155.592C72.5507 157.833 71.3133 159.896 70.2793 162.087C69.8623 162.971 69.3685 165.064 68.0949 165.053C67.0868 165.045 67.1994 163.943 66.5357 163.565C65.6979 163.088 64.7453 163.996 64.057 164.372C64.8496 163.033 66.2352 162.276 67.7924 162.528C65.9277 160.671 64.6676 163.176 63.0673 163.734C61.5509 164.263 58.8608 161.769 57.5841 161.062C58.0725 160.235 58.5138 159.224 59.3538 158.68C60.1504 158.163 61.1282 158.242 61.9981 157.936ZM45.5101 174.907C45.7322 173.838 46.3598 173.206 46.7575 172.235C47.2187 173.412 46.1386 174.107 45.5101 174.907ZM77.7311 181.469C77.6222 185.07 77.328 188.661 77.2217 192.263C77.1729 193.924 76.8788 195.509 76.6835 197.151C76.5185 198.539 76.6025 199.903 75.7286 201.089C74.3507 202.959 71.6715 203.497 69.5917 204.19C68.0643 204.698 66.5194 205.16 65.011 205.725C63.6536 206.234 62.5599 207.004 61.2693 207.609C60.1148 208.15 58.8687 208.47 57.7196 209.047C56.5309 209.643 55.5916 210.369 54.3707 210.9C52.9091 211.535 51.7048 212.665 50.4049 213.562C49.2607 214.352 48.0501 214.962 47.0657 215.955C46.1426 216.887 44.9742 217.296 43.9283 218.124C42.8223 218.999 41.6645 219.568 40.4426 220.255C37.9395 221.661 34.5624 224.064 31.5498 222.697C32.4115 221.597 34.1749 220.539 34.309 219.023C34.4833 217.048 32.7644 217.775 31.769 218.406C30.2612 219.361 29.4272 220.514 28.2793 221.787C26.9376 223.275 25.2426 222.274 23.6007 221.856C24.7233 220.845 25.8369 219.825 26.9575 218.813C27.9035 217.958 29.3511 217.034 29.9272 215.853C30.3389 215.007 30.3187 213.85 29.3252 213.411C28.2136 212.921 26.9565 213.955 26.1331 214.571C23.9477 216.206 22.5083 218.28 21.0733 220.555C20.3099 221.765 19.9583 221.673 18.5538 221.431C17.0657 221.174 15.5775 220.901 14.077 220.721C16.0646 218.68 18.2859 216.468 19.8557 214.08C20.3644 213.306 21.0278 211.266 19.4782 211.079C18.8397 211.002 17.5683 212.307 17.0759 212.659C14.9234 214.198 12.8538 216.138 11.4274 218.385C10.9563 219.126 10.8085 219.951 9.89644 220.012C8.70411 220.093 6.4888 218.955 5.33864 218.603C7.53669 215.832 9.71946 213.041 12.2877 210.597C14.6475 208.352 17.0012 206.721 19.7611 204.998C22.7188 203.152 25.474 201.027 28.1894 198.846C30.7888 196.758 33.5042 194.788 35.8968 192.458C40.6764 187.801 44.9334 182.446 48.4585 176.783C49.2833 175.458 50.0599 174.099 50.731 172.689C51.3615 171.365 51.652 169.781 52.503 168.577C52.7969 168.161 53.2112 167.852 53.4732 167.418C53.7202 167.009 53.6366 166.515 54.0134 166.153C54.885 165.316 56.4721 165.82 57.2866 166.407C58.5968 167.35 59.6566 168.495 61.0966 169.284C62.545 170.078 64.1115 170.656 65.7152 171.046C69.4632 171.957 73.1789 172.705 76.9973 173.259C76.6045 174.716 77.5694 174.945 77.8891 176.256C78.2773 177.848 77.7799 179.849 77.7311 181.469ZM41.6413 157.17C40.7916 155.908 40.0333 154.587 39.1979 153.316C38.6892 152.542 38.0587 151.711 38.4936 150.765C39.2258 149.169 41.8093 148.885 43.2111 149.581C46.3983 151.162 43.4376 155.684 41.6413 157.17ZM33.2054 128.294C32.9118 125.826 33.8555 124.075 36.0881 122.781C37.6791 121.859 38.9605 123.119 38.743 124.801C38.4126 127.362 35.6757 130.211 33.5869 131.547C33.4504 130.464 33.3345 129.378 33.2054 128.294ZM32.865 121.233C33.5234 120.71 35.2872 121.377 36.0502 121.423C35.001 122.34 33.9514 123.257 32.9019 124.173C32.8332 123.544 32.2574 121.716 32.865 121.233ZM36.4058 97.4007C41.7156 96.7104 35.6033 102.409 34.0643 103.302C34.3147 102.089 34.9299 97.5929 36.4058 97.4007ZM50.5417 87.4241C49.8288 90.3447 44.2859 93.5309 44.2278 88.747C44.2066 86.9643 45.2076 87.1087 46.6692 86.9374C47.503 86.8401 50.9494 85.7547 50.5417 87.4241ZM31.3958 91.9471C30.7736 93.5803 30.2745 95.2558 29.6646 96.891C29.3943 97.6152 29.0765 98.1126 28.5732 98.6863C28.1518 99.1661 27.6505 99.2873 27.6671 100.045C28.195 99.9434 28.6081 99.6286 29.0344 99.3255C28.9311 100.829 28.3999 102.446 28.1425 103.944C27.8344 105.741 27.5778 107.538 27.4825 109.36C27.2759 113.322 27.2743 117.269 27.3613 121.233C27.4058 123.253 27.4257 125.274 27.5346 127.291C27.5891 128.295 27.6505 129.303 27.7747 130.301C27.8251 130.703 28.1173 131.561 27.9367 131.938C27.2275 133.42 24.0858 129.35 22.7215 129.947C22.9177 128.82 22.4651 129.067 21.7091 128.512C21.3429 128.243 21.1045 127.786 20.7226 127.546C20.6071 127.422 20.4799 127.311 20.3411 127.214C20.1834 126.999 20.0167 127.022 19.8418 127.283C18.3045 126.364 17.9073 124.405 17.0823 123.088C16.6579 122.411 16.2479 122.305 16.1755 121.369C16.1127 120.553 16.2356 119.721 16.2024 118.902C16.1649 117.977 16.1107 116.958 15.8514 116.063C15.5506 115.024 15.1365 115.109 14.33 114.555C14.5784 114.446 14.7424 114.264 14.8218 114.007C14.5641 114.053 13.7815 114.372 13.587 114.143C13.2045 113.692 14.1069 113.632 14.344 113.452C13.3323 113.003 13.5501 112.634 13.9153 111.811C14.0186 111.577 14.1172 111.229 14.2052 111.033C14.3971 110.604 14.5077 110.876 14.5711 110.343C14.6312 109.834 14.1806 108.835 14.0478 108.293C13.8254 107.385 13.7022 106.6 13.9021 105.653C14.0641 104.887 14.5 104.193 14.5303 103.405C14.5389 103.184 14.2019 103.11 14.1972 102.897C14.1906 102.584 14.4821 102.447 14.5578 102.159C14.7514 101.42 14.6641 100.639 14.9951 99.9387C15.2929 99.3092 15.8946 98.4951 16.3202 97.9456C16.6154 97.565 17.3396 97.1361 17.4189 96.6337C17.4714 96.3007 16.9531 96.3392 16.976 96.0882C17.0076 95.7485 17.2924 95.6386 17.3705 95.3863C17.5859 94.694 17.6401 94.0283 18.1969 93.4977C18.8985 92.8296 19.2029 93.1095 19.2322 92.0075C19.2461 91.4699 18.8161 91.3873 19.0466 90.7674C19.1717 90.431 19.5409 90.2325 19.777 89.9937C20.4783 89.2865 20.9511 88.6583 21.4505 87.7841C21.8921 87.0121 22.5963 86.5625 23.0489 85.8958C23.6379 85.0266 22.757 84.5956 23.9526 84.3502C23.7826 83.8107 23.602 83.3744 24.0493 82.9175C24.3315 82.6293 25.047 82.8056 25.2967 82.4726C25.5829 82.0897 25.1599 81.183 25.5912 80.9346C25.9418 80.7331 26.4668 81.3549 27.018 81.0472C27.4376 80.8124 28.0718 79.5168 27.9367 79.0407C29.0224 79.6513 28.7518 79.2306 29.2715 78.447C29.388 78.2714 29.7409 78.2325 29.8412 78.0552C30.0418 77.7006 29.9959 77.3394 30.2851 77.0512C30.7666 76.5717 31.5545 76.6949 32.0844 76.3522C32.5224 76.0694 32.4991 75.7642 32.8484 75.4973C33.1469 75.2691 33.6373 75.2253 33.9275 74.9889C34.496 74.5257 34.5016 74.037 35.2128 73.6382C36.0552 73.1661 36.8013 72.7643 37.5676 72.1384C38.067 71.7307 38.5411 71.0075 39.1255 70.7383C39.9336 70.366 40.5632 70.3398 41.3537 69.8086C41.9252 69.4247 42.4654 68.7912 43.0262 68.4675C43.4495 68.2238 43.7464 68.2762 44.2796 68.1252C45.2395 67.8529 45.4733 66.9484 46.2562 66.5802C46.7937 66.3276 47.5763 66.559 48.1667 66.4262C50.0035 66.0138 51.818 65.1243 53.6615 64.6315C55.9113 64.0306 58.1774 63.504 60.4445 62.9724C58.361 65.7963 55.7074 68.3443 53.016 70.5872C52.1325 71.3233 47.2915 74.6798 49.9009 76.1132C50.9484 76.6883 53.2239 74.8302 54.0695 74.376C55.7725 73.4612 57.5363 72.7291 59.32 71.9893C62.204 70.793 65.9599 68.6654 69.165 68.8367C67.214 71.2303 64.7785 73.1518 62.547 75.2665C60.4963 77.2095 57.4065 79.0324 58.3733 82.2129C55.493 81.4801 52.9058 80.6139 49.9109 80.8058C48.5694 80.8918 47.227 80.7304 45.8916 80.9183C44.4396 81.1235 43.0723 81.6096 41.6768 82.0359C40.5728 82.373 39.3529 82.3995 38.3372 82.9603C37.8465 83.2316 37.2395 83.6187 36.7986 83.9551C36.2106 84.4037 36.0771 84.7008 35.6152 85.2918C33.9684 87.4009 32.3746 89.3778 31.3958 91.9471ZM22.3868 131.864C22.2968 131.498 22.2151 131.166 22.1119 130.749C23.0286 131.313 23.0286 131.313 22.3868 131.864ZM15.4583 120.238C15.3454 120.394 14.8706 120.444 14.7328 120.31C14.5611 120.142 15.0124 119.489 15.0848 119.35C15.2637 119.487 15.6754 119.937 15.4583 120.238ZM13.4957 116.007C13.6168 115.561 13.7387 115.116 13.8599 114.67C14.009 115.083 14.681 115.54 14.6959 115.934C14.7052 116.194 13.6285 116.064 13.4957 116.007ZM13.8851 116.618C14.937 117.311 15.0472 118.128 15.0784 119.323C13.8197 118.906 14.0003 117.688 13.8851 116.618ZM32.1784 69.4503C32.0725 69.7375 31.6216 70.633 31.2915 70.0068C31.1859 69.8062 31.9589 69.5326 32.1784 69.4503ZM31.8766 68.4741C32.1365 68.2397 32.6605 68.5312 32.9547 68.342C33.1609 68.2092 33.0925 68.0744 33.1894 67.9957C33.2087 67.9801 33.4889 67.4126 33.6038 67.2838C33.8067 67.0577 34.2489 66.9166 34.4953 66.712C35.1843 66.1413 35.5731 65.3902 36.0067 64.6266C36.5237 63.7148 36.6887 63.6092 37.5228 63.1915C38.0978 62.904 38.5434 62.5517 39.0113 62.0623C39.5505 61.4988 39.511 61.0954 39.9536 60.4795C40.1724 60.1757 40.4871 60.1378 40.7418 59.8928C41.0473 59.5996 41.2023 59.1892 41.4849 58.8934C41.6068 58.7652 41.9985 58.7655 42.0723 58.656C42.1665 58.5172 42.2399 57.9624 42.3282 57.8601C42.4966 58.0879 42.6656 58.3156 42.8339 58.5434C43.4987 57.3743 43.9838 56.4085 45.0954 55.6305C46.2628 54.8134 47.2705 53.6181 48.4771 52.8866C48.7484 52.7222 49.3009 52.6532 49.5081 52.4108C49.8584 52.0007 49.5549 51.6362 49.8106 51.2879C50.1004 50.8934 50.6622 51.2128 51.0308 51.0428C51.4973 50.8273 51.6308 50.1985 52.2311 50.2675C50.2565 52.604 50.2811 56.2391 50.1765 59.1573C50.131 60.4147 50.9229 61.0486 49.7538 61.9713C48.7594 62.7562 47.3572 62.5231 46.1815 63.0398C44.7049 63.6886 43.1258 64.0336 41.6197 64.599C40.0615 65.1837 38.8087 66.2074 37.3093 66.8847C35.9868 67.4817 35.084 68.3304 33.8744 69.0675C33.4248 69.3414 32.7286 69.7392 32.1923 69.4118C31.8566 69.2066 31.4383 68.8696 31.8766 68.4741ZM54.1808 48.8843C54.2664 48.5526 55.9522 47.68 56.3669 47.3955C56.9891 46.9675 57.9105 45.9229 58.6051 46.3379C58.8458 45.3737 59.7851 44.3009 60.6149 44.0967C61.5356 43.8696 63.1147 43.0804 64.0205 42.3911C64.2851 42.1899 64.3721 41.8957 64.6836 41.7071C65.2258 41.3781 65.7633 41.5577 66.2856 41.1094C66.3653 41.041 67.0878 39.8481 67.1164 39.8597C67.1532 39.9875 67.1871 40.117 67.2163 40.2472C67.7645 39.943 68.2529 39.7013 68.5946 39.3135C68.6719 39.2255 68.1696 38.9967 68.3283 38.8224C68.5225 38.6089 68.9558 38.8476 69.1521 38.6451C68.5418 41.6746 68.996 45.5739 72.0696 47.1099C68.4146 47.5047 64.8446 46.406 61.1445 47.0807C59.3734 47.4041 57.5728 47.9343 55.9618 48.7492C54.9747 49.2485 53.7123 51.0365 52.7298 50.1683C53.1196 49.6483 53.7146 49.3252 54.1808 48.8843ZM71.9152 40.1688C73.2822 38.497 75.3554 37.8356 77.4432 38.4343C79.8876 39.1352 78.8567 40.8432 78.4875 42.7397C77.7822 41.7054 76.2542 40.6798 74.953 40.6486C73.1082 40.6048 73.8055 42.1417 74.9131 42.6926C75.9202 43.1926 77.6474 43.3321 78.3683 44.2422C79.0698 45.1274 78.8009 46.5753 78.9141 47.6196C78.3686 47.5382 77.8231 47.4572 77.2775 47.3762C77.7354 44.9394 75.7203 44.8216 73.8417 44.1343C71.9431 43.4406 70.36 42.0713 71.9152 40.1688ZM78.0376 34.1683V36.4298C77.2779 35.9965 76.5175 35.5632 75.7572 35.1299C76.5175 34.8095 77.2779 34.4887 78.0376 34.1683ZM84.1473 52.2381C86.685 52.9261 89.2054 53.6536 91.6452 54.6025C92.531 54.9472 93.5016 55.069 94.3698 55.4582C95.1966 55.8284 95.3208 55.7899 95.0266 56.5144C94.2028 58.5444 92.2515 58.1938 90.5418 57.8833C87.8657 57.3972 85.245 56.7232 82.6023 56.089C80.0191 55.4698 77.3815 55.0637 74.8374 54.2871C72.2267 53.4909 69.6826 52.7365 66.9972 52.2106C66.2136 52.0572 60.0139 51.4884 60.061 50.8406C63.9654 50.3333 67.9853 50.833 71.9073 50.8858C75.9829 50.9406 80.1938 51.1667 84.1473 52.2381ZM80.7021 44.3859C80.7506 42.9901 80.7702 41.5899 80.9435 40.2027C82.1049 41.6364 83.1535 42.0654 84.6177 40.7216C86.0196 39.435 86.3324 38.7643 88.1097 39.9739C89.6503 41.0228 91.1083 40.9743 92.7445 40.0562C93.7426 39.4961 95.3467 37.2077 96.3959 37.6789C96.8956 37.9033 97.2622 38.8085 97.7669 39.1415C98.4004 39.5585 99.3742 39.8481 100.112 40.0101C101.856 40.3919 102.895 39.2707 103.989 38.071C105.576 36.3318 105.53 37.3419 107.001 38.5482C108.642 39.8932 110.014 39.2361 111.501 38.088C112.406 40.7406 112.744 43.6372 113 46.418C113.086 47.3569 113.409 48.6901 112.565 49.3541C111.971 49.8223 110.71 49.8405 109.994 50.0992C107.435 51.0242 104.977 52.3368 102.837 54.0168C102.004 54.6713 101.277 55.4728 100.138 55.3237C99.0518 55.1816 97.9969 54.2728 97.1237 53.6725C96.1761 53.0221 95.2172 52.283 94.1099 51.9201C93.4614 51.7076 92.4225 51.7846 91.855 51.3951C90.7998 50.6706 92.0416 48.7707 91.7787 47.4954C91.5798 46.5272 91.0226 44.5084 89.6892 45.0759C87.7046 45.9202 88.8594 49.2167 89.9508 50.2456C87.7183 49.8492 85.2466 49.2701 83.0934 48.5347C81.4302 47.9662 80.6423 46.0886 80.7021 44.3859ZM118.144 51.1843C122.727 49.8973 127.015 49.0297 131.784 48.7953C133.896 48.6914 135.939 48.7571 138.027 48.776C139.229 48.787 140.145 47.8178 139.185 46.7028C137.856 45.1592 133.803 45.7469 132.007 45.6775C127.193 45.4916 122.779 46.0388 118.22 47.6256C118.702 46.7374 119.86 46.6222 120.654 46.163C121.628 45.5992 122.29 44.6705 122.706 43.6399C123.788 40.9597 122.699 38.4339 121.567 35.9852C123.79 36.5835 126.091 37.8937 128.327 38.2264C128.796 38.2961 129.097 38.2513 129.511 38.422C129.766 38.5266 129.846 38.8885 130.162 38.9675C130.314 39.006 130.68 38.6614 130.853 38.7102C131.534 38.9028 130.995 38.9539 131.426 39.2325C131.768 39.4536 131.74 39.7385 132.367 39.6339C132.644 39.5881 132.946 39.1581 133.092 39.1465C133.279 39.1312 133.236 38.9041 133.521 38.9705C134.041 39.091 133.995 39.7601 134.168 40.0894C134.352 40.4401 134.09 40.9062 134.651 41.0978C135.069 41.2416 135.174 40.799 135.531 40.8309C135.747 40.8501 136.196 41.1619 136.387 41.3515C137.002 41.9631 137.845 42.6381 138.672 43.0362C138.591 42.9542 139.062 42.7573 138.949 42.7112C138.874 42.6803 139.369 42.7998 139.361 42.7982C139.839 42.9067 140.092 43.6402 140.333 43.9078C140.777 44.3979 141.467 44.9155 142.089 45.132C143.165 45.5062 143.132 45.0586 143.525 46.3376C144.29 45.1347 144.584 47.1491 145.532 47.3709C146.024 47.4858 145.967 47.2753 146.413 47.5326C146.72 47.7089 146.924 48.2488 147.155 48.5094C147.254 48.1336 147.353 47.7574 147.452 47.3822C148.135 48.6768 149.611 50.7297 151.228 50.3585C151.228 50.7118 151.082 51.1341 151.356 51.4356C151.547 51.6465 151.856 51.4071 152.006 51.5296C152.136 51.6365 152.448 52.0622 152.548 52.1322C152.745 52.2703 153.103 52.3713 153.273 52.5087C153.424 52.6299 153.499 53.2087 153.666 53.4175C153.98 53.8106 154.523 53.8887 154.78 54.3601C154.839 53.8953 154.897 53.4301 154.956 52.9653C155.465 53.3591 155.509 53.6649 155.634 54.2406C155.812 55.0607 155.576 54.8685 156.142 55.2148C156.697 55.5551 156.987 55.5169 157.497 56.1076C157.996 56.6867 158.001 57.0436 158.722 56.4403C158.856 56.8866 158.899 57.4636 159.257 57.8056C159.527 58.0643 160.647 58.0752 160.754 58.6855C158.65 56.9111 160.034 59.6062 160.755 58.6902C160.907 59.6707 161.624 59.9874 162.444 60.686C163.209 61.3365 163.334 61.2893 163.595 62.3827C163.589 62.3588 163.979 62.6005 164.007 62.649C163.262 62.7552 164.417 63.5873 164.612 63.7397C164.754 63.8506 164.94 63.5853 165.176 63.7649C165.447 63.9708 165.668 64.4383 165.888 64.7202C166.485 65.4845 166.926 66.1413 167.554 66.7625C168.232 67.4332 168.562 68.2812 169.213 69.0651C169.935 69.9357 170.325 70.9368 170.929 71.8818C171.503 72.7806 172.265 73.5021 172.93 74.3252C173.99 75.635 174.35 78.5194 176.325 78.5954C176.21 78.7153 176.371 79.6091 176.39 79.7742C176.483 80.586 176.421 81.3672 176.901 82.1027C177.011 81.2636 177.45 81.587 177.831 82.0276C178.465 82.7608 177.909 82.5762 177.942 83.3193C177.983 84.2197 178.085 83.5231 178.428 84.3094C178.697 84.9253 178.844 85.325 178.988 86.0084C177.872 86.097 177.361 85.1853 176.949 84.3021C176.777 83.9325 176.717 83.3252 176.412 83.0364C176.087 82.7289 175.641 82.7047 175.307 82.3617C174.667 81.7026 174.389 80.675 173.634 80.0335C172.781 79.309 172.592 78.9666 171.887 78.1004C171.107 77.1421 170.03 76.4691 169.212 75.5424C168.392 74.6137 168.459 75.1207 167.429 74.7847C166.335 74.4268 164.565 70.985 163.185 72.3108C163.24 71.4435 161.941 70.6277 161.285 70.3136C161.001 70.1778 160.671 70.3006 160.387 70.0971C160.078 69.8763 160.057 69.4506 159.746 69.1857C159.746 69.186 159.27 69.3012 159.173 69.2524C158.976 69.1528 158.975 68.8002 158.801 68.6843C158.321 68.3629 157.748 68.0262 157.238 67.7526C155.998 67.0876 154.902 66.2688 153.706 65.4683C152.681 64.7823 151.44 63.5435 150.256 63.1819C149.221 62.8661 148.571 63.0272 147.723 62.3946C147.262 62.0503 147.398 61.9344 146.656 61.7203C145.95 61.5164 145.553 61.6213 145.179 60.8726C144.525 59.5624 144.938 57.0051 144.811 55.5359C144.677 53.9767 144.517 52.3786 144.111 50.8625C143.63 49.0706 142.995 48.1339 141.073 48.5559C137.264 49.393 133.502 50.1895 129.676 50.9243C122.053 52.3889 114.56 54.7785 107.105 56.9002C106.537 57.0622 103.369 57.7874 104.016 56.1491C104.314 55.3934 106.319 55.1119 106.99 54.8745C110.676 53.5702 114.377 52.2415 118.144 51.1843ZM116.863 47.8497C116.306 48.0618 115.75 48.274 115.193 48.4865V46.9383C115.75 47.2421 116.306 47.5455 116.863 47.8497ZM114.549 39.6631C115.033 40.0586 116.017 39.107 116.428 38.9141C117.131 38.585 118.025 38.3025 118.811 38.3699C120.258 38.4954 121.317 39.9208 121.052 41.3658C120.603 43.8108 117.119 44.967 115.198 45.9229C115.137 45.0563 114.856 44.0147 115.464 43.2653C115.992 42.6145 117.015 42.6617 117.501 41.9694C118.726 40.2299 115.407 40.0722 114.665 41.4554C114.372 40.5712 114.079 39.6874 113.786 38.8035C114.493 38.6863 114.182 39.3636 114.549 39.6631ZM117.976 34.8772C117.285 35.3241 116.593 35.771 115.902 36.218C115.56 34.671 116.727 34.4675 117.976 34.8772ZM180.958 88.7164C180.053 89.1484 179.827 88.1168 179.176 88.0723C179.945 87.5995 179.945 87.5995 180.958 88.7164ZM184.64 111.243C184.752 112.726 184.664 114.225 184.862 115.702C185.012 116.826 185.467 117.871 185.516 119.008C185.622 121.496 184.782 124.03 183.085 125.854C181.479 127.58 179.183 129.065 177.015 129.791C176.039 130.117 175.02 130.842 174.072 131.109C173.022 131.406 172.026 130.761 171.16 131.917C170.583 126.956 171.005 121.772 170.959 116.78C170.914 111.776 170.967 106.771 170.121 101.822C169.367 97.414 167.881 92.4557 165.142 88.8496C164.03 87.3853 162.66 86.186 161.215 85.0631C160.466 84.4807 159.716 83.8578 158.881 83.3979C157.596 82.6897 156.502 82.7877 155.104 82.5861C153.105 82.2973 151.245 82.0532 149.238 82.6163C147.369 83.1409 145.311 83.7379 143.637 84.649C141.97 85.5568 140.034 85.931 138.303 86.7438C137.125 87.297 134.68 89.1447 133.373 88.812C132.109 88.4896 130.237 86.3437 129.429 85.3821C128.397 84.1536 127.544 82.7296 126.628 81.4078C126.307 80.9436 125.652 80.226 125.568 79.6304C125.423 78.5958 125.837 78.9338 126.826 79.0497C129.367 79.3475 131.756 79.819 134.191 80.6188C135.403 81.0166 137.773 82.6266 138.985 81.6618C140.835 80.1889 138.024 77.6571 136.994 76.8068C135.239 75.3575 133.199 74.2814 131.329 72.9934C129.342 71.6251 126.714 70.1682 125.435 68.0611C129.17 69.1634 132.9 70.4261 136.526 71.8472C138.184 72.4974 139.824 73.1843 141.381 74.0489C142.257 74.5344 144.025 75.8479 145.078 75.2187C147.369 73.8514 142.108 69.88 141.349 69.0685C140.169 67.8074 139.013 66.5583 137.717 65.4141C136.843 64.6422 135.469 64.0993 135.062 62.9608C136.514 63.4864 137.687 64.5157 139.047 65.2149C139.758 65.5815 140.408 65.7923 141.194 65.9045C142.032 66.0244 142.132 66.1579 142.792 66.4909C143.306 66.7509 143.834 67.0979 144.411 67.2745C144.822 67.4007 145.541 67.4223 145.9 67.6557C146.084 67.9176 146.274 68.1756 146.47 68.429C146.689 68.4934 146.905 68.5674 147.118 68.6521C147.437 68.9363 147.626 69.3285 147.936 69.6216C150.188 71.7506 153.199 73.2743 155.723 75.058C158.111 76.7454 160.645 78.2717 162.939 80.1132C165.578 82.2328 168.317 84.5109 170.562 87.0526C171.831 88.489 172.874 90.1176 173.939 91.706C174.711 92.8562 175.833 93.8101 176.5 94.9961C177.954 97.5816 179.161 100.376 180.727 102.92C182.322 105.512 184.4 108.088 184.64 111.243ZM163.185 126.244C163.62 124.45 166.074 122.355 167.642 121.564C166.852 123.519 164.746 124.852 163.185 126.244ZM167.231 132.504C165.894 135.278 160.013 135.596 160.811 131.489C161.202 129.478 162.861 128.243 164.286 126.926C164.944 126.318 166.557 124.141 167.576 124.492C167.528 126.057 167.436 127.628 167.44 129.194C167.442 130.238 167.705 131.522 167.231 132.504ZM165.532 100.521C166.074 101.739 166.615 102.754 165.608 103.845C165.154 104.337 163.674 105.413 163.004 105.174C160.854 104.408 164.953 101.069 165.532 100.521ZM152.53 89.677C153.047 89.6488 153.55 89.7258 154.062 89.6942C154.571 89.6627 154.625 89.5724 155.098 89.6368C155.147 89.7092 155.197 89.7816 155.247 89.8543C155.312 90.3404 155.567 90.3932 156.013 90.013C156.633 90.1508 157.037 90.2431 157.63 90.5781C156.029 91.7323 154.081 93.0743 152.118 93.4618C149.017 94.0737 149.874 89.8234 152.53 89.677ZM104.979 115.633C104.658 116.28 103.733 114.663 103.504 114.362C103.931 114.361 105.305 114.98 104.979 115.633ZM129.901 98.6013C132.311 97.1952 135.173 95.9603 137.762 94.9134C138.217 97.1062 135.997 99.9367 134.63 101.437C133.525 102.651 132.192 103.909 130.693 104.607C129.072 105.362 127.301 105.031 127.38 102.912C127.409 102.138 127.585 100.892 127.9 100.185C128.307 99.2723 129.075 99.0828 129.901 98.6013ZM97.3256 58.7144C97.6842 58.6935 101.581 58.1898 101.56 58.6746C101.499 60.1318 97.7167 58.9877 97.3256 58.7144ZM69.773 86.8501C71.8309 84.311 75.1532 81.5701 75.2017 78.0214C75.2734 72.7992 69.4781 75.4046 66.5645 75.6218C68.1052 74.108 75.8471 67.7573 71.2678 65.5018C69.9516 64.8533 68.0806 65.4868 66.7598 65.8265C64.4163 66.4292 62.2375 67.4731 59.9352 68.1992C61.5804 66.4481 64.4226 64.4579 64.3296 61.806C64.2158 58.5776 61.5658 59.3582 59.2745 59.8317C58.3939 60.014 54.4603 61.5788 53.7212 60.5163C53.4506 60.1272 53.8886 59.6328 53.9812 59.2862C54.1452 58.6732 54.0944 58.4591 54.1001 57.8329C54.1114 56.5695 54.9508 54.9468 54.2661 53.7718C54.1097 54.0387 53.9756 54.3167 53.864 54.6052C53.6382 53.9215 53.79 53.196 53.5642 52.5124C59.2848 53.9753 65.1043 54.7762 70.8607 56.025C73.7749 56.6571 76.5175 57.7455 79.4716 58.2356C82.4509 58.7293 85.3784 59.4854 88.3631 59.9565C91.0864 60.3858 93.6955 61.1014 96.3922 61.6499C99.0213 62.1848 101.717 61.0127 104.283 60.4191C110.03 59.0899 115.776 57.7283 121.53 56.4387C128.171 54.9498 135.079 53.6768 141.435 51.1939C141.558 54.5033 141.823 57.8063 142.227 61.0931C139.42 59.7659 135.255 58.0354 132.417 60.4101C131.281 61.36 130.931 63.0006 131.38 64.3955C131.868 65.9142 133.365 66.6194 134.352 67.7626C131.347 66.992 123.594 61.5599 122.214 67.0507C121.239 70.9288 125.994 73.4337 128.318 75.6165C126.01 75.1646 122.918 73.3188 121.563 76.2852C120.391 78.8498 121.802 81.6402 123.248 83.7552C124.031 84.9014 124.912 85.9798 125.744 87.0901C126.185 87.6775 126.615 88.2731 127.077 88.8432C127.541 89.415 128.417 90.0137 128.742 90.6289C129.397 91.8697 128.075 91.9454 127.048 92.3937C125.765 92.9535 124.663 93.8934 123.49 94.6425C120.804 96.3578 118.456 97.9509 115.281 98.499C112.013 99.0632 108.865 99.6525 105.64 100.44C102.425 101.224 99.7999 101.978 96.5131 100.964C95.0146 100.502 93.7941 100.091 92.2047 100.178C90.5352 100.269 89.559 100.182 88.1864 99.1485C82.2803 94.7 75.8691 91.0496 69.773 86.8501ZM59.1247 82.3842C61.4074 81.2387 63.7054 80.0879 66.0635 79.1038C68.0152 78.2886 70.9789 77.3394 73.1155 77.6966C72.5132 79.2439 71.4142 80.5133 70.2351 81.6525C69.1926 82.6602 67.89 84.1809 66.6286 84.8841C65.4828 85.5223 64.15 84.5112 63.0201 84.0876C61.7786 83.6224 60.07 83.4056 59.1247 82.3842ZM59.6985 88.1623C60.836 87.6898 63.2808 89.2759 64.3154 89.6883C66.3487 90.4991 68.393 91.3458 70.185 92.6248C67.9969 95.1535 65.519 97.4654 62.5745 99.0894C60.6375 100.158 57.3723 101.384 55.5448 99.4434C53.2491 97.0052 56.0089 92.0374 57.6342 89.9479C57.688 90.3055 57.7421 90.6624 57.7963 91.02C58.3149 90.19 58.7107 88.573 59.6985 88.1623ZM101.46 109.804C100.041 110.103 99.5585 109.833 98.6215 108.745C97.9883 108.009 97.3661 107.245 96.6519 106.584C95.9231 105.909 94.1235 104.281 96.4165 105.218C98.5066 106.072 100.297 106.499 102.597 106.165C105.226 105.782 107.677 104.671 110.27 104.108C108.848 105.352 107.438 106.608 106.014 107.848C104.509 109.158 103.371 109.401 101.46 109.804ZM101.784 119.806C98.6743 122.146 92.4132 121.893 94.5206 116.743C94.8407 115.961 95.2886 115.225 95.8069 114.559C95.9795 114.336 96.287 113.875 96.5334 113.726C97.2213 113.309 97.0304 113.258 97.6918 113.954C98.2622 114.554 102.721 119.457 101.784 119.806ZM100.862 110.858C101.147 110.765 102.348 110.069 102.621 110.454C102.898 110.844 100.545 112.193 100.862 110.858ZM123.503 146.552C122.804 148.226 117.208 150.648 118.25 147.275C118.712 145.781 119.147 144.65 120.89 144.536C121.895 144.471 124.119 145.079 123.503 146.552ZM133.542 123.878C134.464 122.536 137.506 120.723 138.805 122.723C139.431 123.687 137.912 124.181 136.994 123.933C136.501 123.799 136.097 123.505 135.561 123.482C134.872 123.454 134.198 123.995 133.542 123.878ZM135.985 125.21C135.358 125.844 131.58 129.023 130.968 128.533C132.202 126.769 133.619 124.799 135.985 125.21ZM129.814 157.382C128.502 157.457 129.157 155.48 129.284 154.689C129.601 155.24 131.271 157.3 129.814 157.382ZM133.147 153.839C132.723 153.084 131.58 151.959 131.838 150.988C132.036 150.245 133.821 149.246 134.568 149.672C135.561 150.238 134.122 153.964 133.147 153.839ZM164.279 145.919C163.718 147.853 163.137 147.354 161.377 147.729C159.611 148.105 158.39 149.604 156.836 150.408C157.376 149.266 157.711 147.875 158.615 146.949C158.824 146.735 160.105 146.313 159.375 145.817C158.737 145.385 157.82 146.79 157.546 147.173C156.199 149.058 155.258 151.36 154.48 153.529C154.098 154.594 153.792 155.679 153.611 156.798C153.449 157.795 153.623 158.838 153.459 159.809C153.194 161.372 151.07 161.38 149.793 161.784C148.637 162.148 147.486 162.544 146.285 162.741C145.245 162.911 144.165 162.601 143.157 162.806C142.064 163.028 141.574 163.675 140.333 163.529C139.321 163.41 138.374 162.944 137.348 162.898C136.388 162.855 135.431 163.187 134.477 162.916C133.514 162.643 133.56 162.538 133.78 161.592C133.916 161.847 134.054 162.103 134.191 162.358C134.575 162.056 134.84 161.139 135.075 160.708C135.44 160.041 135.737 159.81 135.602 158.979C135.403 157.751 134.296 156.878 134.045 155.71C133.783 154.492 134.684 153.495 135.216 152.478C135.944 151.086 135.935 150.054 135.325 148.614C135.784 148.735 136.244 148.857 136.704 148.978C136.074 147.61 133.936 148.165 132.864 148.57C132.325 148.774 131.47 149.574 130.891 149.554C130.094 149.526 129.678 148.478 129.336 147.902C128.345 146.233 127.214 144.584 126.042 143.035C125.719 142.608 125.297 142.334 125.408 141.849C125.503 141.437 126.427 140.852 126.727 140.598C127.851 139.648 129.282 139.121 130.338 138.12C131.934 136.608 133.775 135.525 135.406 134.042C137.106 132.498 138.858 131.08 140.629 129.621C142.423 128.143 143.978 126.401 145.759 124.908C146.221 125.745 147.115 128.739 148.137 128.971C149.329 129.241 149.294 127.831 149.235 126.982C149.15 125.772 148.478 124.597 148.404 123.442C148.323 122.207 149.512 121.655 150.408 120.941C151.793 119.837 154.859 117.324 153.211 115.255C151.791 113.474 147.175 116.89 145.903 117.917C144.822 118.79 143.987 119.58 142.769 120.268C141.913 120.752 140.477 122.613 139.462 122.441C138.255 122.237 137.784 120.919 136.307 120.963C134.864 121.005 133.639 122.044 132.744 123.088C130.721 125.446 130.026 128.602 128.183 131.06C127.274 132.272 126.095 133.273 125.11 134.42C124.027 135.679 123.797 137.129 122.73 138.361C119.675 134.291 116.347 130.438 113.126 126.502C111.517 124.537 109.941 122.548 108.367 120.555C107.777 119.808 107.112 119.107 106.572 118.322C105.832 117.248 105.965 116.385 105.674 115.187C105.546 114.655 104.942 114.019 105.104 113.512C105.321 112.83 106.846 112.294 107.396 112.015C109.642 110.875 111.678 109.45 113.772 108.058C117.65 105.479 121.572 103.061 125.697 100.858C125.626 101.807 125.008 102.791 125.423 103.743C125.616 103.195 125.922 100.755 126.653 100.651C126.513 100.671 126.628 103.779 126.741 104.223C127.079 105.548 128.058 106.454 129.459 106.445C132.127 106.427 134.519 103.525 136 101.602C137.003 100.3 137.966 98.7859 138.319 97.1563C138.637 95.6934 138.288 94.676 139.808 93.933C142.929 92.4089 146.074 91.1671 149.412 90.359C149.262 91.797 148.845 93.5677 150.152 94.602C151.595 95.7439 153.483 94.7262 154.842 93.9708C156.187 93.2227 158.262 91.1678 159.843 91.7648C161.397 92.3518 162.479 94.3015 163.35 95.5961C164.116 96.7373 164.951 97.5601 164.063 98.8321C163.067 100.257 162.42 101.649 161.622 103.197C161.316 103.792 161.023 104.18 161.24 104.79C161.31 104.988 162.109 106.166 162.326 106.335C163.711 107.413 165.581 105.363 166.569 104.585C166.918 107.936 166.996 111.271 167.136 114.632C167.239 117.093 168.192 119.517 166.172 121.316C164.153 123.115 162.467 124.962 161.236 127.397C160.579 128.699 159.989 130.034 159.278 131.308C158.803 132.16 157.801 133.408 158.414 134.41C159.061 133.796 159.254 132.862 159.793 132.17C160.116 133.607 160.441 135.201 161.961 135.81C163.711 136.511 165.449 135.298 166.998 134.624C166.443 138.466 165.359 142.199 164.279 145.919ZM162.491 150.335C161.291 152.901 160.207 155.994 157.99 157.883C157.504 158.298 155.435 159.918 154.648 159.647C153.98 159.416 154.348 158.066 154.465 157.488C155.055 154.552 156.077 152.704 158.458 150.831C159.443 150.056 160.708 149.065 161.978 148.874C163.346 148.668 162.952 149.35 162.491 150.335ZM196.35 211.232C193.238 207 188.839 203.711 184.682 200.532C182.799 199.092 180.724 198.011 178.822 196.571C176.671 194.942 174.487 193.371 172.077 192.144C167.51 189.816 162.527 188.194 158.217 185.442C156.115 184.1 153.815 182.802 151.839 181.296C150.971 180.634 150.204 179.787 149.419 179.029C148.69 178.324 147.126 177.302 146.836 176.271C148.049 176.072 148.738 174.895 149.821 174.775C150.178 174.735 152.412 175.327 152.107 174.243C152.917 174.222 153.012 174.21 153.691 174.033C153.972 173.959 154.305 174.074 154.59 173.974C155.025 173.82 155.321 173.376 155.761 173.206C156.073 173.086 157.233 173.22 157.409 173.07C157.889 172.66 157.379 172.696 157.093 172.183C158.026 172.16 158.667 172.631 159.603 172.13C159.888 171.977 160.129 171.625 160.405 171.443C160.894 171.119 161.071 171.621 161.407 170.949C161.72 171.876 161.712 171.62 162.468 171.347C163.221 171.075 163.766 170.88 164.624 170.811C166.674 170.649 168.731 170.898 170.771 170.753C171.518 170.699 172.155 170.53 172.897 170.628C173.55 170.713 173.353 171.167 173.896 170.555C174.022 170.413 173.615 170.024 173.81 169.82C173.896 169.73 174.177 169.793 174.284 169.747C175.238 169.33 175.242 169.912 175.411 170.67C175.971 170.539 176.542 170.42 177.028 170.092C176.782 169.873 176.371 169.631 176.608 169.231C177.415 169.537 177.943 169.396 177.539 170.281C178.351 170.55 178.503 170.2 179.232 170.123C179.663 170.078 180.265 170.346 180.625 170.001C181.017 169.625 180.398 169.217 181.119 168.893C181.267 168.969 181.376 169.082 181.448 169.234C181.837 169.352 181.767 169.505 181.238 169.693C182.655 170.428 182.322 169.607 182.917 168.738C183.055 168.538 183.67 167.915 183.951 168.216C184.376 168.672 183.508 168.817 183.694 169.27C184.017 170.055 185.143 169.048 185.488 168.651C185.75 168.35 185.856 167.774 186.138 167.549C186.53 167.237 187.093 167.719 187.583 167.633C189.823 167.24 191.938 164.229 190.251 162.214C189.797 161.672 189.413 161.78 188.873 161.438C188.339 161.1 188.04 160.516 187.611 160.033C186.632 158.931 185.434 158.106 184.066 157.578C180.893 156.354 177.474 155.461 174.141 154.804C172.598 154.5 170.955 154.034 169.375 154.038C168.444 154.039 167.043 154.763 166.172 154.416C164.48 153.742 166.964 150.291 167.374 149.176C168.578 145.901 169.487 142.41 170.082 138.971C170.199 138.298 170.154 137.427 170.396 136.786C170.675 136.049 170.734 136.153 171.33 136.093C172.405 135.984 173.582 136.548 174.702 136.353C175.944 136.137 177.285 136.238 178.539 135.854C179.115 135.677 179.649 135.486 180.028 134.999C180.148 134.847 180.015 134.714 180.09 134.607C180.114 134.574 180.542 134.111 180.556 134.085C180.552 133.846 180.572 133.608 180.619 133.374C181.053 133.734 180.839 134.491 181.571 134.508C181.701 133.702 181.703 133.539 182.232 133.085C182.192 133.12 182.631 132.747 182.574 132.787C182.601 132.643 182.654 132.509 182.732 132.385C182.98 132.266 183.241 132.202 183.516 132.195C184.088 131.607 183.851 131.293 183.851 130.501C184.312 130.741 184.774 130.981 185.236 131.22C185.347 128.874 186.776 127.59 187.725 125.688C188.129 124.878 188.542 124.245 188.638 123.268C188.694 122.704 188.548 122.207 188.782 121.675C188.993 121.193 189.467 120.934 189.665 120.408C190.055 119.375 189.764 118.056 189.785 116.983C189.815 115.495 189.964 114.011 190.012 112.524C190.108 109.604 189.814 106.603 189.377 103.716C189.168 102.336 188.819 100.996 188.544 99.6303C188.318 98.5074 187.778 97.4541 187.585 96.4099C187.505 95.9756 187.629 95.5861 187.498 95.106C187.325 94.4752 187.037 93.8546 186.823 93.235C186.322 91.7874 185.827 90.342 185.264 88.917C184.173 86.1551 182.895 83.4763 181.682 80.7676C180.514 78.1628 179.547 75.4773 178.035 73.0449C176.546 70.6493 174.942 68.2938 173.301 66.0008C171.591 63.6125 169.429 61.5606 167.771 59.1504C164.658 54.6251 160.316 50.8961 155.772 47.8168C146.397 41.4624 136.267 35.1179 125.025 32.9392C123.331 32.6111 121.615 32.3833 119.888 32.3408C118.817 32.3143 117.042 32.8322 116.027 32.4697C114.891 32.0636 114.995 30.7876 114.711 29.7865C114.345 28.4999 113.52 27.6569 112.583 26.7471C111.597 25.7899 110.702 24.6712 109.472 24.0201C108.226 23.3607 106.756 23.114 105.375 22.9148C104.142 22.7365 102.3 22.9028 101.173 22.3656C100.148 21.8762 100.654 21.3665 101.615 21.7856C101.685 21.3619 101.742 21.0883 102.014 20.7609C102.15 20.5962 102.794 20.3655 102.809 20.2121C102.828 20.0322 102.287 19.5201 102.21 19.2882C102.044 18.7889 102.138 18.0975 102.336 17.6289C103.304 18.4898 103.585 18.8711 104.666 18.0481C105.123 17.7006 105.263 17.5474 105.792 17.3722C105.935 17.3245 106.257 17.4715 106.382 17.3891C106.86 17.0744 106.42 17.1485 106.647 16.7766C106.59 16.8704 106.992 15.8819 106.972 16.0886C107.021 15.562 107.177 15.7238 106.859 15.0769C106.236 13.8112 104.651 13.7595 105.459 12.3151C105.777 11.7468 106.057 11.8034 106.146 10.9794C106.194 10.5363 106.135 10.0284 106.133 9.57776C106.129 8.65615 106.302 8.01088 105.439 7.54162C104.609 7.09029 103.843 7.58544 103.506 6.4661C103.153 5.29154 103.509 3.78571 102.236 2.9814C101.306 2.39377 99.9639 2.89617 98.9366 2.60876C97.907 2.32099 96.96 1.26752 95.9151 2.07635C95.1727 2.65119 94.7789 4.06452 93.3801 3.30025C92.7485 2.95553 92.4012 1.79824 92.0028 1.14918C91.3686 0.114708 90.8599 -0.25896 89.8838 0.748588C89.2821 1.37002 88.0134 2.88272 87.9357 3.74295C87.8507 4.69252 88.6791 5.08933 87.6389 5.65106C86.6043 6.21007 86.0239 5.80015 85.1839 6.93466C84.3508 8.06022 84.9956 8.68201 84.0307 9.75892C82.8241 11.105 82.1823 11.686 82.1992 13.4996C82.2108 14.7435 81.1118 15.818 81.753 16.9981C82.4715 18.3207 84.5686 18.8707 85.84 19.409C85.4156 20.1933 84.8332 20.6962 85.3286 21.5033C85.7775 22.2345 87.0462 22.3865 87.8328 22.2537C88.3617 22.1647 88.3807 22.2448 88.797 21.8725C89.07 21.6292 88.6957 21.325 89.2575 21.1902C89.8552 21.0458 90.8101 22.2179 91.1983 22.5107C90.3307 23.6366 87.948 23.8471 86.6873 24.4179C85.9193 24.7659 85.2131 25.2808 84.4308 25.592C83.7213 25.8742 82.8577 25.8088 82.2142 26.2454C81.1032 26.9998 80.6407 28.8684 79.9597 29.9671C79.1887 31.2109 78.4413 31.7883 76.9621 32.0466C75.117 32.3684 73.6312 32.4979 71.9102 33.3014C69.8088 34.2829 67.7373 35.3192 65.6734 36.377C62.3444 38.0833 59.2519 39.8348 56.1607 41.8983C52.9267 44.0579 49.781 46.3117 46.6606 48.5679C43.574 50.7994 40.9829 53.5447 38.3017 56.2434C36.1345 58.4249 34.2327 60.7793 32.0738 62.9601C29.5251 65.5353 27.6505 68.7852 25.2874 71.5172C23.9945 73.0113 22.7573 74.4809 21.9462 76.2413C21.2888 77.6687 20.1452 79.0689 19.3819 80.566C18.4067 82.4802 17.4837 84.3642 16.3886 86.2149C15.9394 86.9743 15.4055 87.626 14.9314 88.3512C14.3237 89.2795 14.3596 90.1764 14.1962 91.2468C14.0256 90.9855 13.8552 90.7242 13.6846 90.4636C13.3751 91.1392 13.0013 91.8036 12.7333 92.4956C12.5623 92.9369 12.5892 93.5634 12.4175 93.9496C12.2021 94.4343 11.9398 94.3699 11.6711 94.7737C11.3839 95.2053 11.2913 95.7854 10.9888 96.2482C9.68028 98.2497 9.17692 100.789 8.50456 103.073C7.60276 106.136 7.74487 109.658 7.79401 112.817C7.84614 116.153 8.02843 119.49 8.53013 122.791C8.98468 125.781 9.9562 128.649 11.4772 131.271C12.8027 133.555 14.6302 134.886 16.9714 136.056C18.0465 136.594 19.0442 136.428 20.1725 136.513C21.4086 136.607 22.2516 136.943 23.5595 136.648C24.1867 136.506 24.4839 136.049 24.9823 135.897C25.2907 135.803 25.4571 135.956 25.7533 135.921C26.1769 135.869 27.0581 135.662 27.5177 135.711C28.9477 135.868 28.7077 138.029 28.8484 139.133C29.0649 140.833 29.2233 142.552 29.5155 144.241C30.1294 147.794 31.4552 151.114 32.2385 154.606C28.6074 155.049 25.4926 155.726 22.0893 157.101C18.675 158.479 15.2229 158.947 11.6296 159.632C8.26815 160.273 5.03483 161.471 2.34405 163.642C1.083 164.659 -0.227198 165.849 0.698837 167.523C1.29118 168.594 2.35866 168.866 3.28005 169.489C3.46632 169.253 2.92776 168.754 2.82915 168.616C3.60378 168.775 3.58021 169.136 4.14599 169.451C4.64038 169.726 5.04513 169.716 5.58634 169.911C6.90782 170.385 7.55727 171.57 8.86348 171.903C9.27454 172.007 9.8121 172.257 10.2321 172.329C10.7371 172.414 11.115 172.193 11.6266 172.286C11.9026 172.468 12.2014 172.598 12.5221 172.676C12.7326 172.579 12.9405 172.476 13.1454 172.367C13.8805 172.443 14.3344 172.905 14.9317 173.285C14.9715 172.807 14.9141 172.31 15.367 171.997C15.544 172.463 15.2581 172.758 15.7409 173.078C16.3525 173.484 17.1556 172.977 17.7032 172.72C17.8582 174.267 21.4398 174.176 22.575 174.154C24.1472 174.124 25.7177 173.5 27.3038 173.848C28.113 174.025 28.9766 174.21 29.7821 174.441C30.752 174.718 31.9244 174.966 32.879 175.315C33.2588 175.454 33.7237 175.9 34.1277 175.87C34.4495 175.846 34.5358 175.371 34.9103 175.385C35.334 175.4 35.4765 175.872 35.843 176.014C36.3922 176.227 36.8969 175.823 37.4185 176.027C37.6061 176.1 37.8601 176.414 38.1002 176.517C38.4644 176.672 39.1856 176.674 39.591 176.749C40.1657 176.855 40.6804 176.784 41.1728 176.819C41.5699 176.847 41.5613 177.115 41.7512 177.132C41.9693 177.152 42.3488 176.402 42.6417 176.292C43.068 176.132 43.842 176.514 44.2769 176.581C41.1263 180.851 37.3275 184.626 33.2097 187.931C28.7681 191.496 24.2196 195.057 19.4566 198.184C15.1319 201.023 10.9457 203.479 7.5928 207.487C4.76556 210.867 0.265206 214.483 0.95882 219.382C1.6521 224.276 6.96692 226.268 11.2256 227.203C16.5819 228.378 22.0956 227.905 27.4662 228.566C29.7566 228.848 32.3012 228.697 34.6069 228.457C37.3298 228.174 39.6637 226.396 42.0048 225.112C46.2157 222.8 49.8156 219.707 53.9633 217.324C59.1566 214.339 64.2951 211.177 69.9884 209.178C72.6371 208.248 75.3637 207.186 77.5003 205.274C77.8184 204.989 78.0552 204.559 78.4144 204.325C79.025 203.926 79.1887 204.33 79.5433 204.21C79.8159 204.117 80.0802 203.822 80.3159 203.734C80.9133 203.51 81.1799 203.602 81.8489 203.602C81.2749 203.272 80.7493 202.418 81.3452 201.723C82.3652 200.532 82.5412 202.435 82.9244 202.876C83.2495 202.458 83.1249 202.087 83.0419 201.612C83.3162 201.794 83.5911 201.975 83.8657 202.156C83.6764 201.238 83.8564 200.392 84.3428 199.592C84.7914 198.855 84.9023 198.958 85.0258 197.936C86.4193 199.208 86.6916 196.121 86.8171 194.996C86.9383 193.904 86.8185 193.121 87.5363 192.166C88.3069 191.141 89.4787 190.494 90.4568 189.698C92.0021 188.44 93.7024 186.851 95.8394 188.057C97.5261 189.01 98.4442 191.345 100.027 192.545C100.987 193.273 102 193.346 102.612 194.475C103.107 195.387 103.268 196.479 103.735 197.416C104.866 199.687 106.495 202.286 108.354 204.027C110.084 205.649 112.304 205.641 114.329 206.646C116.332 207.642 118.415 208.72 120.536 209.442C122.852 210.23 125.351 210.565 127.606 211.52C128.766 212.011 129.804 212.751 130.974 213.221C132.237 213.728 133.566 214.085 134.845 214.55C139.914 216.391 144.873 218.648 150.197 219.668C152.559 220.121 154.745 221.35 157.123 221.609C158.144 221.72 158.976 221.86 159.975 222.116C161.541 222.516 161.209 222.729 161.786 224.035C162.735 226.185 165.054 224.912 166.841 224.965C169.701 225.052 172.518 224.589 175.374 224.567C180.368 224.529 185.177 223.966 190.008 222.326C194.859 220.68 200.381 216.713 196.35 211.232Z" fill="#666875"/>
<path fill-rule="evenodd" clip-rule="evenodd" d="M138.618 43.2454C138.687 43.3138 138.847 43.3553 138.618 43.2454V43.2454Z" fill="#666875"/>
<path fill-rule="evenodd" clip-rule="evenodd" d="M50.644 134.819C51.7287 133.72 56.344 133.942 56.6929 135.908C57.0817 138.103 52.9579 141.418 51.4485 142.348C49.5064 143.544 47.1357 143.768 47.4801 140.765C47.7404 138.497 49.0994 136.384 50.644 134.819ZM54.4554 132.556C54.5962 133.164 53.5589 132.957 53.2733 132.813C53.1385 132.537 54.3146 131.946 54.4554 132.556ZM46.4966 136.581C47.417 136.664 48.4718 135.187 49.1664 134.684C49.4732 135.158 47.4492 137.766 47.2264 138.361C46.6702 139.848 46.3608 141.727 47.1191 143.21C49.3351 147.544 55.0062 141.355 56.4246 139.193C57.4171 137.681 58.1041 135.806 56.7022 134.325C56.2032 133.797 55.3787 133.651 54.9152 133.149C54.305 132.489 54.7851 131.638 53.5582 131.782C52.7115 131.881 51.6952 132.645 50.8721 132.921C49.88 133.254 48.9881 133.599 48.1222 134.216C47.927 134.355 45.3594 136.479 46.4966 136.581Z" fill="#666875"/>
<path fill-rule="evenodd" clip-rule="evenodd" d="M111.557 138.036C110.979 141.013 108.028 144.068 104.923 144.187C101.832 144.304 100.83 141.065 101.376 138.483C101.842 136.281 103.745 132.456 106.46 132.877C108.595 133.208 112.053 135.483 111.557 138.036ZM109.588 133.059C107.628 131.542 104.92 130.84 102.648 132.044C101.903 132.438 98.929 134.179 99.8337 135.357C101.054 134.412 102.107 133.099 103.693 132.785C103.426 134.014 101.903 135.12 101.367 136.317C100.74 137.715 100.397 139.315 100.499 140.852C100.682 143.587 102.514 145.712 105.35 145.336C107.946 144.991 110.216 143.002 111.455 140.764C113.108 137.777 112.177 135.061 109.588 133.059Z" fill="#666875"/>
<path fill-rule="evenodd" clip-rule="evenodd" d="M91.3839 144.804C89.988 146.871 87.8597 148.815 85.399 149.454C82.2132 150.28 83.1083 147.647 84.0603 145.758C84.902 144.087 86.346 141.214 88.545 141.229C89.2914 141.234 90.6813 141.595 91.3354 141.994C92.6247 142.781 92.1187 143.717 91.3839 144.804ZM88.4105 140.262C88.9116 139.704 91.1295 137.312 91.4267 139.177C92.0635 138.438 91.5612 137.826 90.7457 137.748C89.7622 137.654 88.6868 138.749 87.9769 139.293C86.516 140.413 85.3914 141.559 84.4232 143.129C83.3557 144.86 80.634 148.771 83.016 150.488C85.5906 152.344 89.3379 148.916 90.9502 147.149C91.9812 146.018 93.3468 144.357 92.9547 142.699C92.4733 140.662 90.1042 140.448 88.4105 140.262Z" fill="#666875"/>
<path fill-rule="evenodd" clip-rule="evenodd" d="M77.4249 106.956C75.9843 108.6 73.0577 110.995 70.6462 110.712C68.4468 110.455 69.3055 107.987 70.0837 106.792C71.2531 104.996 72.8197 103.311 75.0831 103.212C76.0603 103.17 77.3267 103.19 78.0834 103.93C79.117 104.94 78.1863 106.088 77.4249 106.956ZM77.2719 102.389C75.5842 101.806 74.9211 101.584 73.2809 102.511C71.9637 103.255 70.7956 104.307 69.8918 105.502C68.5391 107.29 67.1748 111.313 70.6482 111.816C74.4582 112.368 83.521 104.55 77.2719 102.389Z" fill="#666875"/>
<path fill-rule="evenodd" clip-rule="evenodd" d="M82.4648 112.652C81.3688 113.771 80.0005 114.685 78.4386 114.997C79.0994 113.523 80.5746 110.302 82.3237 109.853C83.1296 109.646 84.0483 109.917 83.9822 110.835C83.9341 111.499 82.8972 112.21 82.4648 112.652ZM83.8756 108.755C82.9682 108.3 83.2544 107.989 82.1986 108.346C81.3665 108.627 80.3169 109.115 79.624 109.677C79.2461 109.984 78.0691 111.071 78.2132 111.624C78.4742 112.629 79.352 111.089 79.5828 110.792C79.9783 111.115 77.9559 114.009 77.8357 114.485C77.3871 116.258 78.7793 116.446 80.1436 115.866C81.9834 115.084 87.4317 110.537 83.8756 108.755Z" fill="#666875"/>
<path fill-rule="evenodd" clip-rule="evenodd" d="M110.851 156.478C110.987 155.302 111.18 154.059 112.259 153.399C113.231 152.804 114.238 152.89 114.382 154.111C114.516 155.244 113.406 157.257 112.507 157.876C111.256 158.737 111.015 157.663 110.851 156.478ZM112.458 159.154C115.027 157.651 116.645 150.759 111.911 152.69C109.221 153.788 110.21 160.469 112.458 159.154Z" fill="#666875"/>
<path fill-rule="evenodd" clip-rule="evenodd" d="M90.5242 130.574C90.9293 129.744 91.3925 129.469 92.214 129.105C91.6664 129.622 91.107 130.1 90.5242 130.574ZM91.1169 128.528C90.5352 129.112 89.2021 130.002 89.389 131.004C89.5594 131.919 90.2583 131.867 90.8921 131.582C92.2213 130.984 92.961 128.368 94.3516 128.123C92.8093 127.145 92.4494 127.191 91.1169 128.528Z" fill="#666875"/>
<path fill-rule="evenodd" clip-rule="evenodd" d="M91.3211 76.5717C91.3952 79.3578 91.4602 82.1435 91.5217 84.9296C91.5433 85.9088 91.3095 87.3046 91.6034 88.2426C91.7332 88.6556 92.9066 90.4466 93.3229 90.5625C94.7796 90.9679 94.2593 87.3159 94.2692 86.4168C94.3048 83.383 94.2603 80.3459 94.248 77.3121C94.241 75.7486 94.6826 62.6393 92.6539 62.7034C92.3046 62.7144 91.4436 64.2132 91.3142 64.5137C90.9064 65.4573 91.0565 66.8561 91.0658 67.8622C91.0934 70.7641 91.2441 73.6701 91.3211 76.5717Z" fill="#666875"/>
<path fill-rule="evenodd" clip-rule="evenodd" d="M103.604 84.6932C103.718 85.4635 103.658 86.7478 104.525 87.1472C105.28 87.4945 105.569 87.0815 105.851 86.436C106.5 84.9512 106.266 82.6811 106.254 81.1458C106.23 78.103 105.887 75.0732 105.651 72.0421C105.546 70.712 105.762 69.3762 105.596 67.9844C105.523 67.3738 105.451 64.9167 104.318 65.0313C103.295 65.1345 103.387 67.7095 103.331 68.3728C102.867 73.8959 102.786 79.1801 103.604 84.6932Z" fill="#666875"/>
<path fill-rule="evenodd" clip-rule="evenodd" d="M151.921 148.114C151.487 150.332 144.409 158.057 142.626 153.737C141.569 151.173 143.861 148.383 145.648 146.9C146.755 145.982 148.137 145.08 149.644 145.359C150.924 145.595 152.196 146.706 151.921 148.114ZM148.266 144.136C147.766 144.254 143.587 147.188 143.549 147.15C143.186 146.786 145.821 142.857 146.093 142.513C148.327 139.682 149.81 141.826 151.208 144.051C150.91 142.722 150.092 140.792 148.723 140.23C146.996 139.521 145.648 141.272 144.817 142.531C143.643 144.311 142.995 146.244 142.342 148.253C142.031 149.211 141.676 150.079 141.149 150.943C140.629 151.795 139.719 152.735 139.853 153.813C140.593 153.402 140.986 152.597 141.452 151.934C141.971 152.145 141.793 153.802 141.898 154.224C142.164 155.284 142.888 156.114 144.008 156.296C146.097 156.636 148.351 154.704 149.747 153.392C151.218 152.01 152.802 150.114 152.789 147.986C152.775 145.763 150.589 143.586 148.266 144.136Z" fill="#666875"/>
<path fill-rule="evenodd" clip-rule="evenodd" d="M153.927 108.495C152.742 110.308 150.663 112.481 148.464 112.903C146.849 113.212 145.784 112.015 146.433 110.4C146.981 109.034 148.847 108.172 150.071 107.572C151.041 107.095 155.567 105.985 153.927 108.495ZM153.055 105.529C150.629 105.437 148.671 107.192 146.861 108.592C147.27 106.984 148.194 105.233 149.496 104.186C151.268 102.761 152.947 103.646 154.812 104.359C154.352 102.907 152.287 102.385 150.971 102.59C149.307 102.849 148.111 104.269 147.27 105.643C146.267 107.282 145.923 109.214 144.742 110.751C144.201 111.455 140.853 114.088 141.611 115.164C142.862 113.836 144.113 112.509 145.364 111.181C145.688 112.75 146.045 114.537 148.049 114.384C149.649 114.262 151.474 112.902 152.644 111.863C154.154 110.52 157.128 105.683 153.055 105.529Z" fill="#666875"/>
<path fill-rule="evenodd" clip-rule="evenodd" d="M119.059 121.011C118.031 121.484 115.768 122.126 115.194 120.706C114.395 118.734 116.964 115.274 118.187 113.959C118.939 113.151 119.45 112.733 120.499 113.256C121.336 113.674 122.567 114.861 122.888 115.774C123.577 117.734 120.667 120.272 119.059 121.011ZM121.418 111.538C122.255 111.726 122.358 112.79 121.311 112.381C120.527 112.075 120.344 111.295 121.418 111.538ZM122.469 113.035C122.157 112.081 122.792 110.586 121.253 110.517C120.381 110.478 118.782 111.365 118.021 111.725C116.965 112.225 115.971 112.988 115.42 114.062C114.91 115.057 115.274 115.319 116.052 114.493C116.148 114.558 114.292 119.344 114.276 119.823C114.203 122.015 115.755 123.458 117.933 123.07C119.936 122.712 121.74 121.075 122.843 119.422C123.4 118.586 123.858 117.628 123.899 116.603C123.964 115.032 122.916 114.4 122.469 113.035Z" fill="#666875"/>
<path fill-rule="evenodd" clip-rule="evenodd" d="M134.939 108.667C133.187 107.866 131.229 110.604 132.074 112.231C133.182 114.365 138.589 110.335 134.939 108.667ZM132.849 111.728C132.485 111.079 134.961 110.123 135.352 110.107C135.157 110.465 133.349 112.617 132.849 111.728Z" fill="#666875"/>
<path fill-rule="evenodd" clip-rule="evenodd" d="M15.6422 107.1C15.5443 106.407 13.991 107.413 14 107.859C14.257 107.345 15.8461 108.543 15.6422 107.1Z" fill="#666875"/>
<path fill-rule="evenodd" clip-rule="evenodd" d="M100.596 54.7327C102.573 54.5873 100.054 44.6104 98.6125 45.4926C97.05 46.4489 98.7809 54.8658 100.596 54.7327Z" fill="#666875"/>
<path fill-rule="evenodd" clip-rule="evenodd" d="M104.289 50.074C106.142 50.3393 105.847 46.085 104.851 45.3236C103.011 43.9181 102.039 49.7519 104.289 50.074Z" fill="#666875"/>
</svg>
