<svg width="205" height="233" viewBox="0 0 205 233" fill="none" xmlns="http://www.w3.org/2000/svg">
<path fill-rule="evenodd" clip-rule="evenodd" d="M193.997 156.417C194.954 157.877 195.912 159.336 196.918 160.761C197.066 160.97 197.217 161.181 197.369 161.394C198.793 163.381 200.319 165.51 200.296 168.038C200.285 169.282 200.105 170.655 198.906 171.323C198.879 170.839 198.185 171.318 197.952 171.479C197.939 171.488 197.926 171.497 197.916 171.504C197.501 171.787 197.418 171.906 197.314 171.929C197.218 171.951 197.103 171.889 196.688 171.798C196.165 171.682 195.671 171.668 195.189 171.655C194.38 171.632 193.608 171.61 192.796 171.111C192.01 170.628 191.227 170.141 190.444 169.654C188.491 168.44 186.539 167.226 184.542 166.075C178.495 162.593 172.509 159.028 166.9 154.866C163.791 152.559 160.597 150.328 157.396 148.093C150.504 143.28 143.585 138.448 137.431 132.796C128.426 124.528 118.977 116.323 108.292 110.275C108.132 110.185 107.905 110.084 107.651 109.971C106.769 109.58 105.565 109.045 105.712 108.295C105.836 107.663 106.892 106.843 107.691 106.223C107.964 106.011 108.207 105.822 108.372 105.673C109.168 104.951 109.975 104.244 110.783 103.536C112.255 102.247 113.727 100.957 115.127 99.5857C119.129 95.6654 123.101 91.3387 126.311 86.7387C127.716 84.7253 128.502 82.509 129.31 80.2316C129.4 79.9776 129.49 79.7232 129.581 79.4679C130.386 77.222 131.129 74.4572 129.824 72.2356C129.219 71.2063 128.384 70.7889 127.217 70.8669C127.062 70.8772 126.934 70.8908 126.825 70.9025C126.254 70.9636 126.233 70.9656 125.911 70.1043C125.86 69.9685 125.811 69.83 125.76 69.6906C125.404 68.6955 125.027 67.6423 124.057 67.0821C123.008 66.4762 122.265 67.0167 121.435 67.6207C121.358 67.6765 121.281 67.7326 121.203 67.7884C121.028 67.5367 120.847 67.2548 120.658 66.9586C119.685 65.4429 118.474 63.5556 116.673 63.4321C114.44 63.279 113.166 66.0213 112.388 67.694L112.374 67.7239C110.08 72.6612 107.094 77.2732 103.883 81.6699C100.403 86.4359 96.8449 91.2839 93.0103 95.7716C92.8353 95.9765 92.655 96.2019 92.4684 96.435C91.7904 97.282 91.03 98.2326 90.1329 98.6845C88.9595 99.2762 87.9856 98.7204 86.9939 98.0401C86.45 97.6669 85.9094 97.2917 85.3699 96.9165C83.5899 95.68 81.8168 94.4485 79.9495 93.3222C77.8859 92.0771 75.7778 90.9123 73.6691 89.7472C73.0236 89.3906 72.3782 89.0337 71.7337 88.6748C71.2526 88.4068 70.7811 88.117 70.3096 87.8268C69.5924 87.3858 68.8746 86.9446 68.1205 86.5783C67.4555 86.2553 66.7565 86.0255 66.0573 85.7954C65.5324 85.6227 65.0071 85.4501 64.4961 85.2376C68.595 84.0157 72.8988 85.4375 76.8317 86.7364C77.0983 86.8247 77.3636 86.912 77.6266 86.9984C79.7768 87.7019 82.0257 88.4347 84.3213 88.2455C86.3069 88.0821 88.1088 87.0189 89.6793 85.8578C92.5182 83.7587 92.741 80.6061 91.8153 77.4196C91.1891 75.2627 90.3673 73.1546 89.5465 71.0479C88.9714 69.5724 88.3967 68.0975 87.8897 66.6073C87.3299 64.9618 86.944 63.2143 88.2187 61.7925C89.3592 60.5202 90.8351 60.3638 92.3917 60.8645C92.5464 60.9143 92.7001 60.9638 92.8535 61.0133C96.4418 62.1704 99.6801 63.2146 103.561 63.1041C106.724 63.0141 110.747 62.1163 112.879 59.5457C114.047 58.1365 114.091 56.1991 114.096 54.4513C114.102 52.3798 113.971 50.2966 113.681 48.246C113.57 47.4587 113.42 46.6708 113.271 45.8843C112.726 43.0152 112.184 40.1587 113.505 37.3706C113.899 36.5376 114.998 34.5968 116.085 34.4806C117.258 34.3551 117.535 35.7616 117.708 36.6442C117.729 36.7511 117.749 36.8503 117.768 36.938C117.947 36.8248 118.12 36.7899 118.273 36.759C118.552 36.7026 118.767 36.6594 118.841 36.1767C119.963 37.3524 120.929 38.6496 121.896 39.9482C122.311 40.506 122.726 41.0638 123.154 41.6127C123.764 42.3936 124.525 43.1032 125.288 43.8134C126.235 44.6959 127.183 45.5788 127.838 46.5994C128.505 47.6384 127.998 49.0349 127.522 50.3444C127.282 51.0058 127.05 51.6447 126.982 52.2041C126.751 54.0831 127.241 56.2333 128.525 57.666C129.125 58.3358 129.859 58.8013 130.746 58.9812C131.218 59.0768 131.678 58.9733 132.123 58.873C132.509 58.786 132.884 58.7017 133.245 58.7528C133.792 58.8302 133.895 59.1486 134.051 59.63C134.079 59.716 134.108 59.8073 134.142 59.9033C134.45 60.7719 134.844 61.592 135.571 62.2023C135.875 62.4573 136.188 62.6442 136.493 62.8268C137.003 63.1316 137.49 63.4231 137.879 63.9959C138.012 64.1938 138.132 64.39 138.249 64.5816C138.605 65.1646 138.935 65.7062 139.567 66.1235C139.856 66.3141 140.189 66.4705 140.523 66.6272C141.486 67.0788 142.454 67.5324 142.364 68.8157L142.941 68.3565C143.388 69.7918 144.003 71.1817 144.659 72.5314C144.967 73.1639 145.125 73.5 145.109 74.2035C145.105 74.3553 145.076 74.4947 145.047 74.6299C144.988 74.9071 144.934 75.1648 145.119 75.4666C145.358 75.8567 145.814 76.0061 146.267 76.1545C146.647 76.2791 147.025 76.4029 147.27 76.6679C147.535 76.9547 147.54 77.2904 147.545 77.6198C147.55 77.9744 147.556 78.321 147.885 78.59C147.617 78.6723 146.875 79.272 147.154 79.6362C147.397 79.9523 147.504 79.8158 147.612 79.6774C147.684 79.5864 147.756 79.4944 147.867 79.5286C148.216 79.6356 148.337 79.9191 148.453 80.192C148.552 80.4255 148.649 80.6512 148.881 80.7522C148.986 80.798 148.976 80.3016 148.971 80.1851C150.486 83.1714 152.136 86.0853 153.787 88.9988C155.934 92.7903 158.081 96.5808 159.928 100.528C165.739 112.951 172.648 125.047 180.288 136.441C180.888 137.336 181.507 138.228 182.127 139.122C183.372 140.916 184.623 142.719 185.735 144.564C186.79 146.316 188.01 147.942 189.232 149.571C189.947 150.525 190.664 151.48 191.348 152.462C192.256 153.764 193.126 155.091 193.997 156.417ZM148.97 80.1821C148.969 80.1505 148.97 80.1562 148.971 80.1851C148.971 80.1841 148.97 80.1831 148.97 80.1821ZM25.3084 70.2075C25.2905 70.436 25.2722 70.6697 25.3499 70.9347C25.429 71.2056 25.6547 71.4092 25.8785 71.6107C26.0386 71.7551 26.1976 71.8982 26.3009 72.0646C27.1319 70.841 27.1031 68.2207 26.596 66.9125C26.3567 66.2945 25.9038 65.49 25.5452 64.9475C25.4891 64.8628 25.3971 64.7705 25.3081 64.6812C25.2098 64.5826 25.1155 64.488 25.0767 64.4109C25.0149 64.2881 24.9867 64.1211 24.9581 63.9517C24.9276 63.7721 24.897 63.5901 24.825 63.457C24.4219 62.7079 23.5397 62.523 22.7644 62.6117C22.6811 62.6213 22.5967 62.6306 22.5111 62.6399C21.8005 62.7176 21.0239 62.8026 20.3897 63.111C20.1925 63.207 20.0248 63.3245 19.8641 63.4371C19.4902 63.6991 19.1559 63.9335 18.5835 63.802C18.7887 64.1556 18.6309 64.4146 18.4666 64.6849C18.3716 64.8412 18.274 65.0013 18.2435 65.1859C18.1359 65.832 18.3444 66.4111 18.7711 66.9015C19.562 67.8106 20.7022 67.8903 21.8135 67.968C21.944 67.9769 22.0741 67.9862 22.2033 67.9965C23.2415 68.0802 24.5189 68.2522 25.1291 69.225C25.3569 69.5886 25.333 69.8931 25.3084 70.2075ZM30.0631 67.3278C30.5685 68.1941 31.7073 70.507 31.6203 71.5904V74.3559C31.5277 75.3215 29.8961 76.972 29.0537 77.8243C28.9585 77.9206 28.8735 78.0066 28.8017 78.0803C27.0473 79.8862 25.1418 80.1173 22.5416 79.8869C20.3393 79.6917 17.4864 78.9575 15.9956 77.2067C14.5646 75.527 14.5848 72.9239 14.7967 70.8553C15.0922 67.9663 16.3595 65.3346 18.0482 62.9985C19.0374 61.6302 21.7437 58.4443 23.81 59.1413C24.1148 59.2442 24.3482 59.5171 24.5567 59.7605C24.5949 59.8053 24.6324 59.8492 24.6693 59.891C24.8379 60.1098 25.005 60.3296 25.171 60.5507C25.2739 60.8413 25.4592 60.9269 25.7261 60.8081C25.9685 61.1437 26.2441 61.4519 26.5193 61.7593C27.0669 62.3716 27.6127 62.9815 27.89 63.802C28.1533 64.5816 28.7001 65.3463 29.2307 66.089C29.5315 66.5094 29.827 66.9227 30.0631 67.3278Z" fill="#FFB1A3"/>
<path fill-rule="evenodd" clip-rule="evenodd" d="M121.708 226.623C123.212 226.035 125.065 226.31 126.641 226.338C128.621 226.374 130.605 226.524 132.578 226.678C136.368 226.975 140.138 226.85 143.931 227.204C145.814 227.38 147.698 227.543 149.582 227.703C151.232 227.843 153.148 228.281 154.795 227.966C155.475 227.836 157.311 227.196 156.97 226.2C156.708 225.432 154.642 224.958 153.969 224.74C152.385 224.225 150.75 223.856 149.15 223.397C148.328 223.162 147.509 222.908 146.643 222.99C145.908 223.059 145.135 223.608 144.39 223.545C143.289 223.452 142.722 222.069 141.914 221.459C140.629 220.488 139.676 221.007 138.69 222.077C137.961 222.868 137.267 224.065 136.071 224.136C134.55 224.226 134.254 222.922 134.926 221.816C135.544 220.797 137.227 219.752 137.318 218.482C137.375 217.68 136.091 215.532 135.352 215.226C134.109 214.713 132.353 216.073 131.23 216.49C129.268 217.219 127.265 217.864 125.278 218.522C123.92 218.972 121.904 219.012 121.647 220.604C121.326 222.597 121.717 224.621 121.708 226.623ZM43.9493 195.979C44.3445 195.104 44.7592 194.606 43.9696 193.794C43.528 193.34 42.9051 193.116 42.4705 192.645C41.8174 191.937 40.794 190.001 42.1939 189.514C43.532 189.047 44.6592 190.91 45.736 191.319C47.1026 191.838 47.9493 190.968 48.1449 189.662C48.3959 187.984 48.1196 186.231 48.3202 184.532C48.5161 182.866 49.0978 181.483 49.5441 179.889C49.8469 178.808 50.2171 177.72 48.8441 177.48C47.5851 177.26 46.1248 177.783 44.8481 177.853C42.857 177.962 40.8419 178.063 38.8673 178.361C36.6626 178.695 36.7028 180.949 36.1493 182.792C34.8072 187.26 33.0076 191.645 32.1695 196.251C31.8083 198.237 32.7659 199.597 33.8808 201.159C35.2763 203.115 36.7283 205.065 38.3091 206.877C39.3646 208.086 40.554 209.213 42.091 209.769C43.8321 210.399 44.4975 209.699 44.0961 207.983C43.5655 205.718 42.7653 203.529 42.8596 201.17C42.8941 200.311 43.1438 199.388 42.5243 198.668C42.0946 198.17 41.3585 198.002 40.7977 197.698C39.8733 197.198 38.4413 195.587 40.2422 195.24C41.4654 195.004 42.7653 195.827 43.9493 195.979ZM85.5402 107.235C86.6393 108.463 87.8339 109.637 88.8758 110.911C89.4731 111.643 89.8965 112.521 90.5376 113.214C91.9418 114.732 93.341 113.05 94.5844 112.067C99.4746 108.201 104.077 104.011 108.736 99.8732C110.956 97.9016 113.318 96.0834 115.502 94.0743C117.715 92.0392 119.557 89.6569 121.631 87.4884C122.626 86.4472 123.818 85.4142 124.433 84.0841C124.958 82.9499 125.073 81.716 125.671 80.5945C126.705 78.6521 128.603 76.3972 128.168 74.0481C126.886 75.3912 124.753 80.204 122.517 77.9468C120.922 76.3358 122.551 73.9545 122.48 72.0762C120.966 72.719 121.359 75.3255 119.744 75.7866C118.871 76.0363 118.124 75.2454 117.716 74.5521C117.012 73.3535 117.27 72.0991 117.591 70.8274C117.808 69.9608 119.2 67.103 117.824 66.7504C116.631 66.4446 115.632 68.6377 115.237 69.4146C114.513 70.8397 113.952 72.3133 113.157 73.7075C111.785 76.111 110.206 78.4074 108.7 80.7283C105.598 85.5079 102.061 89.9943 98.4234 94.3754C94.5373 99.0547 90.3311 103.467 85.5402 107.235ZM119.993 122.438C119.837 126.649 116.219 129.841 113.089 132.182C109.088 135.174 105.398 138.575 100.627 140.277C98.7903 140.933 96.4966 140.744 95.7608 142.811C95.4733 143.62 95.7342 143.917 96.046 144.73C96.5334 146.003 96.8266 147.384 97.0581 148.723C97.845 153.281 97.08 157.923 94.341 161.718C92.8851 163.735 91.0247 165.45 89.1013 167.014C87.1825 168.574 85.3676 170.393 83.2522 171.684C78.7406 174.436 73.7286 176.016 68.5263 176.776C65.8206 177.172 63.1039 177.524 60.3713 177.664C58.9542 177.736 57.5344 177.75 56.1166 177.688C55.4831 177.66 53.1273 177.125 52.6695 177.487C52.3172 177.767 52.1601 179.459 52.0897 179.926C51.94 180.912 51.8221 181.886 51.6183 182.864C51.2089 184.828 50.6574 187.05 51.2607 189.031C51.4353 189.604 51.5767 190.07 52.1073 190.263C52.4437 190.385 53.0397 190.17 53.3797 190.136C54.149 190.057 54.8752 190.026 55.6488 190.108C58.1878 190.376 60.6811 191.025 63.247 190.848C68.7175 190.472 74.1934 190.086 79.6138 189.23C82.2505 188.814 84.7802 188.026 87.373 187.418C89.8443 186.838 92.3143 186.252 94.6209 185.163C99.1399 183.028 103.317 180.204 107.047 176.896C111.03 173.364 113.667 169.178 116.158 164.506C118.347 160.402 120.193 156.248 120.097 151.517C120.036 148.523 119.607 144.814 121.338 142.173C122.129 140.967 123.724 139.849 125.21 140.487C127.907 141.645 125.359 143.937 124.33 145.193C122.849 147.002 123.048 149.757 122.894 151.97C122.712 154.581 122.126 156.871 121.554 159.396C120.994 161.867 122.123 164.799 122.235 167.32C122.356 170.054 122.276 172.79 122.246 175.525C122.185 180.965 122.438 186.389 122.419 191.828C122.409 194.649 122.481 197.483 122.303 200.3C122.14 202.868 121.614 205.326 121.154 207.847C120.702 210.322 120.043 213.286 120.195 215.803C126.375 213.45 132.391 210.671 138.667 208.57C136.709 206.863 136.622 204.451 136.464 202.045C136.256 198.871 135.734 195.724 135.506 192.55C135.056 186.281 135.182 179.687 135.715 173.426C136.288 166.703 137.303 160.004 137.512 153.253C137.613 150.001 137.361 146.741 136.831 143.532C136.385 140.829 135.998 137.427 134.588 135.031C133.241 132.742 130.765 131.288 128.698 129.729C125.676 127.449 122.877 124.886 119.993 122.438ZM120.368 34.5135C121.141 35.5597 122.016 36.5253 122.941 37.4394C123.895 38.3827 124.302 38.1741 125.444 37.6837C127.715 36.7076 127.672 35.5787 126.404 33.622C123.463 29.0831 122.348 23.6777 119.236 19.2318C116.17 14.851 111.711 11.3117 107.029 8.78569C102.005 6.07502 96.561 5.2125 90.8982 5.29339C88.0042 5.33482 85.092 5.53454 82.2163 5.8588C79.4186 6.174 76.9303 7.09203 74.2223 7.78518C72.859 8.13398 71.4531 8.42341 70.1277 8.90277C68.9649 9.32315 67.9193 9.97244 66.7446 10.3653C64.1727 11.2246 61.5845 12.1851 59.2639 13.5905C56.9952 14.9649 54.9512 16.4306 52.8906 18.1179C50.7566 19.8653 48.9032 21.896 46.5956 23.4303C44.4949 24.8271 42.8241 26.7091 40.9192 28.346C38.929 30.0566 37.0935 32.1524 35.6004 34.3139C34.1405 36.4273 33.585 39.1619 32.7031 41.5453C31.6765 44.3194 30.6581 47.2847 30.2713 50.2259C29.5508 55.7064 31.1681 62.1123 33.2247 67.184C35.2591 72.2004 38.5558 76.386 42.4894 80.0586C44.4069 81.8499 46.4993 83.4755 48.8438 84.6731C50.8493 85.6978 53.4644 87.5399 55.6471 86.2526C56.531 85.7313 57.2485 85.1253 58.2702 84.8906C59.3871 84.6343 60.4812 84.7392 61.3826 83.9204C62.149 83.2245 62.5155 82.3844 63.5216 81.9644C64.7146 81.466 66.1254 81.3754 67.4027 81.3794C70.2711 81.389 73.1412 82.1068 75.8788 82.9031C78.3876 83.6325 80.487 84.7329 83.1523 84.0662C85.1328 83.5708 88.3094 82.2536 88.7364 79.9832C89.1179 77.9538 87.6453 75.3304 86.9039 73.5145C85.8789 71.0051 84.9505 68.5364 84.3067 65.8981C83.7964 63.8076 82.9952 60.4631 84.4356 58.5522C85.851 56.6749 89.1232 56.6975 91.1562 57.1696C92.4886 57.4791 93.7135 58.1023 95.0466 58.4164C96.4046 58.7365 97.8098 58.8972 99.195 59.0543C103.996 59.5971 110.826 58.3696 110.57 52.235C110.343 46.7674 107.33 41.2866 109.094 35.8124C109.813 33.5812 111.282 31.0006 113.728 30.4116C115.668 29.9444 118.29 30.4342 120.002 31.4488C121.375 32.2633 122.736 33.969 120.368 34.5135ZM23.9607 58.9351C19.1217 59.879 15.9212 64.98 15.0344 69.5033C14.6323 71.5529 14.4905 73.994 15.2678 75.9772C16.1636 78.2636 18.696 79.2178 20.9306 79.6973C23.4849 80.2455 25.7484 80.0313 27.7734 78.2606C28.6636 77.4817 29.4176 76.5746 30.0575 75.5834C30.7116 74.5697 31.6213 73.8313 30.9636 72.6984C29.333 69.8914 27.9418 67.1339 26.868 64.046C26.3889 62.6681 25.9629 61.3217 25.6448 59.9026C25.3924 58.7757 25.2702 58.088 23.9607 58.9351ZM66.3435 89.5543C65.4072 90.4561 64.3314 91.1746 63.1228 91.6594C61.797 92.191 61.3946 91.9356 61.4603 93.4693C61.533 95.1627 61.5453 96.518 60.7734 98.0938C60.4121 98.8316 59.0773 99.827 59.3293 100.657C59.6913 101.848 63.3981 103.052 64.4795 103.468C67.0667 104.465 70.0852 104.485 72.5273 103.077C75.3638 101.442 75.6148 98.4763 74.5463 95.6066C74.4325 95.3005 74.0178 94.7831 74.1197 94.4488C74.307 93.8362 75.0776 93.9245 75.5199 94.1586C76.4801 94.6666 76.8812 96.2115 77.088 97.1758C77.6402 99.7517 76.6259 102.541 74.6981 104.316C73.7183 105.218 72.4931 105.82 71.2433 106.254C70.5341 106.501 69.7897 106.696 69.0406 106.771C68.4353 106.832 67.671 106.641 67.0929 106.814C66.0742 107.117 66.0287 108.374 65.7741 109.292C65.3192 110.934 65.1293 112.711 65.0695 114.409C64.9729 117.156 65.2999 120.656 66.8801 122.984C70.5666 128.418 77.6967 130.304 83.2635 133.1C86.2226 134.586 88.9665 136.454 91.6011 138.45C91.8614 138.647 92.2509 139.034 92.5634 139.187C93.6195 139.707 92.6972 139.518 93.3732 139.174C93.8938 138.91 94.3394 138.336 94.8773 138.037C96.1161 137.347 97.5073 136.975 98.7674 136.324C101.697 134.809 104.289 132.929 106.889 130.922C109.553 128.866 112.251 126.989 114.682 124.648C115.707 123.661 116.861 122.848 117.9 121.903C118.948 120.952 117.607 120.557 116.721 119.857C113.702 117.473 110.722 115.014 107.499 112.907C106.424 112.204 105.475 111.256 104.354 110.635C103.182 109.986 102.487 110.568 101.564 111.392C100.556 112.294 99.5948 113.178 98.4725 113.949C96.9903 114.968 95.2671 115.459 93.7769 116.429C94.7335 117.43 97.0664 117.765 97.4047 119.282C97.748 120.82 95.4587 122.019 94.3885 122.613C92.4993 123.662 90.4151 124.298 88.3097 124.753C86.5579 125.131 83.9608 124.562 82.5569 125.884C82.1565 125.037 81.7813 124.595 82.4401 123.785C83.0981 122.977 84.2712 122.837 85.1999 122.526C87.7077 121.686 90.178 120.566 92.6049 119.517C92.2828 118.763 91.4776 118.247 90.864 117.756C89.9878 117.055 89.2517 116.279 88.5385 115.407C87.1778 113.745 85.9576 111.971 84.6617 110.26C84.0999 109.518 83.5872 108.777 82.5609 109.188C81.6548 109.551 80.7706 110.492 79.9 110.979C77.9307 112.081 76.2082 113.139 74.0407 113.84C73.1674 114.123 69.5911 114.928 70.5424 112.742C70.8243 112.094 71.7666 111.827 72.347 111.543C73.4194 111.019 74.4886 110.486 75.5219 109.887C77.6445 108.659 79.5165 107.071 81.5024 105.642C83.6931 104.066 85.9214 102.536 87.9783 100.784C85.9317 99.4279 83.6613 98.4352 81.5449 97.1954C79.4056 95.9419 77.2507 94.809 75.0381 93.6957C73.2763 92.8092 71.4857 91.8639 69.8793 90.7184C69.2408 90.2625 67.0438 88.3693 66.3435 89.5543ZM130.695 45.4619C130.426 45.5296 130.16 45.6067 129.896 45.6923C131.69 48.4356 129.709 51.8316 130.27 54.7996C131.927 53.8201 132.144 50.0101 134.659 50.7143C137.368 51.4733 136.02 54.8072 136.84 56.7141C138.12 55.5952 139.615 56.6411 140.143 57.9685C140.715 59.4069 139.922 60.7347 140.188 62.1581C140.464 63.631 141.287 62.6644 141.743 61.7958C142.325 60.6885 142.833 59.1917 142.618 57.925C142.358 56.3847 141.323 54.9523 140.683 53.5532C140.046 52.1629 139.443 50.7442 138.522 49.5107C136.777 47.1752 133.746 45.0767 130.695 45.4619ZM148.046 78.3572C146.875 75.4337 145.142 72.7565 144.034 69.8097C143.71 68.9481 143.529 67.5745 142.673 67.0436C142.11 66.6946 141.361 66.9041 140.74 66.7165C140.122 66.5296 139.469 66.084 139.025 65.6242C138.214 64.7831 137.95 63.629 136.993 62.8965C135.757 61.9512 134.802 61.5887 134.214 60.0092C133.753 58.7687 133.752 58.5868 132.365 58.8637C130.85 59.1658 129.62 58.7956 128.575 57.6126C126.806 55.6094 126.61 52.7875 127.478 50.3697C127.884 49.2388 128.591 47.9232 128.004 46.7396C127.459 45.6395 126.135 44.85 125.296 43.9734C123.175 41.7578 121.515 39.1649 119.527 36.84C119.051 36.2839 118.564 35.7291 118.197 35.0916C117.964 34.6865 117.827 33.9899 117.287 33.8753C116.357 33.6781 115.059 35.2855 114.592 35.8708C111.169 40.1554 113.618 45.9908 114.035 50.8209C114.247 53.2806 114.724 56.2293 113.633 58.5456C112.605 60.728 110.004 61.8174 107.811 62.425C104.854 63.2448 101.678 63.2086 98.6684 62.7109C97.0923 62.4503 95.5795 62.0054 94.0874 61.4416C92.561 60.8645 90.9733 59.872 89.4174 60.9189C87.4092 62.2706 88.0298 64.9823 88.4707 66.9586C89.1912 70.1869 90.4493 73.1981 91.5623 76.2996C92.4969 78.9044 93.2536 82.1723 91.2887 84.5031C89.326 86.831 86.0712 88.2879 83.0417 88.1671C76.761 87.9167 71.0278 83.2338 64.6096 85.1493C65.8156 85.6476 67.0902 85.9408 68.2686 86.5116C69.691 87.2002 71.0076 88.1156 72.3885 88.882C75.0391 90.3522 77.699 91.8015 80.2895 93.377C82.6303 94.8001 84.8433 96.3593 87.0772 97.9368C89.8609 99.9021 91.3272 97.7253 93.1129 95.6023C97.0116 90.9681 100.723 86.0607 104.265 81.1496C107.344 76.8803 110.203 72.4225 112.43 67.6529C113.227 65.9462 114.568 63.0513 116.9 63.3879C118.97 63.6868 120.177 66.1843 121.248 67.713C121.994 67.1781 122.634 66.4625 123.642 66.757C124.479 67.0008 125.057 67.8587 125.427 68.5905C125.681 69.0936 125.855 70.7886 126.28 71.0436C126.583 71.2252 127.74 70.8351 128.255 70.9543C130.02 71.362 130.584 73.6304 130.566 75.2046C130.541 77.3747 129.635 79.5459 128.892 81.5554C127.226 86.06 124.373 89.5805 121.227 93.1399C118.035 96.7521 114.693 100.026 111.092 103.232C110.204 104.023 109.324 104.823 108.458 105.638C107.747 106.307 106.622 107.002 106.066 107.788C105.037 109.241 107.79 109.901 108.814 110.433C113.221 112.721 117.283 115.735 121.164 118.809C125.166 121.978 129.191 125.16 133.037 128.519C136.8 131.804 140.353 135.306 144.315 138.361C148.386 141.5 152.651 144.398 156.834 147.384C161.021 150.374 165.095 153.519 169.277 156.513C173.363 159.438 177.751 161.946 182.049 164.543C184.298 165.902 186.558 167.241 188.818 168.582C190.644 169.667 192.627 171.353 194.793 171.49C196.744 171.614 198.595 172.332 199.761 170.21C200.646 168.599 200.28 166.384 199.505 164.819C198.559 162.909 197.078 161.154 195.889 159.386C194.522 157.354 193.253 155.263 191.903 153.221C190.609 151.262 189.171 149.454 187.727 147.609C186.264 145.737 185.153 143.628 183.848 141.647C181.06 137.411 178.194 133.252 175.55 128.922C169.488 118.99 164.059 108.737 158.87 98.3306C158.413 97.4135 147.748 78.5203 148.046 78.3572ZM139.511 139.418C142.769 150.68 140.89 162.131 140.222 173.588C139.884 179.381 139.833 185.21 139.683 191.01C139.61 193.83 139.615 196.652 139.732 199.47C139.791 200.888 139.895 202.301 139.996 203.716C140.085 204.968 139.75 206.351 139.907 207.559C140.11 209.105 143.18 209.409 142.237 211.394C141.604 212.725 139.388 212.928 138.2 213.49C138.728 214.101 139.554 215.016 140.435 215.074C141.228 215.125 141.84 214.438 142.551 214.178C143.182 213.947 144.05 213.723 144.449 214.459C144.866 215.231 143.992 216.088 143.647 216.686C144.822 216.913 145.635 216.212 146.695 216.276C147.81 216.344 147.86 217.441 148.594 218.076C149.432 218.802 150.895 218.959 151.929 219.264C153.131 219.619 154.339 220.06 155.434 220.677C157.391 221.78 159.072 223.863 159.796 225.996C160.545 228.206 159.375 230.118 157.631 231.474C156.981 231.979 156.05 232.566 155.189 232.294C154.204 231.983 154.05 231.182 152.85 231.241C151.772 231.294 150.75 231.725 149.666 231.78C148.074 231.861 146.483 231.571 144.889 231.632C138.456 231.879 132.023 231.934 125.601 231.316C123.939 231.156 122.31 231.025 120.672 230.972C119.399 230.932 119.292 229.982 119.076 228.789C118.555 225.909 119.708 223.074 119.137 220.275C119.175 220.46 118.273 219.979 118.165 219.888C117.503 219.331 117.281 218.539 117.085 217.716C116.559 215.526 116.565 213.294 116.727 211.06C117.096 205.989 118.039 200.966 117.962 195.868C117.923 193.299 118.001 190.736 118.002 188.168C118.002 185.809 118.216 183.48 118.236 181.137C118.279 176.001 118.82 170.922 118.971 165.791C117.902 166.831 117.335 168.281 116.656 169.579C115.82 171.175 114.888 172.754 113.868 174.239C111.762 177.306 108.935 179.802 106.008 182.064C100.42 186.382 94.35 189.725 87.5045 191.557C80.0939 193.539 72.5993 194.877 64.9596 195.629C63.1919 195.803 61.4045 195.897 59.6332 195.725C58.473 195.612 56.5874 194.675 55.4851 195.151C54.2323 195.691 53.9803 196.991 52.3378 196.626C51.7109 196.487 51.257 196.069 50.7082 195.786C49.901 195.371 49.8688 195.658 49.0981 195.711C48.2388 195.77 47.7239 195.34 46.9748 196.032C46.339 196.62 46.4007 197.032 46.9814 197.581C47.7979 198.354 49.1048 198.484 49.9219 199.291C50.7171 200.076 50.5747 201.041 49.3465 201.052C48.1107 201.064 47.0123 200.184 45.8047 200.07C46.062 203.643 47.1372 207.634 45.9452 211.139C45.392 212.765 44.2057 213.813 42.4363 213.801C39.4752 213.782 36.8781 211.059 35.0947 208.937C34.1089 207.764 33.3097 206.446 32.3581 205.244C31.3849 204.016 30.3414 202.78 29.7842 201.294C29.1915 199.714 29.3645 198.127 29.6959 196.505C30.106 194.496 30.4871 192.467 30.9828 190.477C31.9441 186.619 33.8775 183.097 34.8537 179.251C35.2229 177.796 35.2182 176.088 36.1502 174.841C37.1367 173.519 38.6717 173.434 40.1941 173.519C42.0783 173.624 43.9613 173.832 45.8356 174.045C47.0193 174.18 49.6128 175.033 50.576 174.306C50.9077 174.056 50.9084 173.399 51.2962 173.173C51.6701 172.954 52.2737 173.111 52.6824 173.142C54.7062 173.292 56.7475 173.474 58.7752 173.533C66.3123 173.753 74.2658 172.579 80.9951 169.077C84.1178 167.452 86.4968 164.895 89.0066 162.479C91.4746 160.103 93.6255 157.546 94.2896 154.097C94.8959 150.949 94.6664 147.183 93.6594 144.135C92.6786 141.167 89.1972 139.368 86.6635 137.904C83.1499 135.874 79.4199 134.192 75.6344 132.735C75.0334 132.504 74.303 132.209 73.6422 132.327C72.8317 132.472 72.2875 133.174 71.5504 133.484C70.6742 133.853 69.5994 133.855 68.6747 134.07C67.7782 134.278 66.9043 134.565 65.9912 134.703C63.1155 135.137 59.0744 134.79 56.6977 132.953C52.8129 129.951 55.16 125.702 56.4081 122.048C55.0886 122.003 53.99 122.312 52.7306 121.747C51.4758 121.185 50.4947 120.189 49.9226 118.941C48.882 116.67 49.483 114.062 49.7901 111.694C49.9289 110.624 50.0873 109.562 50.4957 108.556C50.8121 107.778 51.3314 107.035 51.5233 106.212C51.7345 105.305 51.4605 105.252 50.7042 104.818C49.5378 104.15 48.6984 103.381 47.9845 102.207C46.5863 99.9084 46.5518 97.3992 47.6973 94.981C48.1611 94.0025 49.2675 92.6568 49.1416 91.514C49.0334 90.5305 47.9204 89.7645 47.265 89.1207C45.2409 87.1321 43.089 85.2963 40.8445 83.5618C39.7956 82.751 38.6401 82.0152 37.6869 81.0942C36.9883 80.4195 36.2787 78.9516 35.3235 78.5966C34.3672 78.2417 33.7304 79.3095 33.0643 79.8819C32.0261 80.7741 31.031 81.8007 29.8994 82.574C27.8701 83.9613 25.3539 83.7016 23.0619 83.2587C20.668 82.7955 18.4477 81.9804 16.4063 80.6353C15.5955 80.1007 14.6482 79.0153 13.6498 78.9283C12.5833 78.8357 11.4245 79.8959 10.6622 80.5324C8.67234 82.1942 8.07502 84.7754 6.91589 87.008C5.62164 89.5012 5.07179 92.089 5.42408 94.8917C5.74084 97.4132 6.71203 99.3184 8.15669 101.355C8.45552 101.776 9.15511 102.572 8.64378 103.038C8.01824 103.608 6.73659 102.465 6.31658 102.096C2.1446 98.4265 -0.226433 92.8979 1.12792 87.3632C1.85474 84.3916 3.27683 81.642 4.92835 79.085C5.6306 77.9973 6.31558 76.9099 7.53679 76.3551C8.92701 75.7239 10.5022 75.7989 11.987 75.6475C10.96 70.6199 10.6386 65.149 13.7946 60.7672C16.2164 57.4047 21.1763 54.4626 25.1069 57.1892C24.9459 53.4828 24.4176 49.9629 25.4041 46.3132C25.846 44.678 26.4516 43.0865 27.196 41.5642C27.9252 40.0727 28.9322 38.8077 29.5212 37.2551C31.8455 31.1304 36.305 25.6596 41.068 21.2638C45.8828 16.8205 50.6072 11.3998 56.6721 8.61994C62.9993 5.71942 69.443 3.11294 76.3035 1.79504C83.4239 0.427036 90.7428 0.146237 97.916 1.44142C104.204 2.57691 110.024 6.39467 114.782 10.5105C120.211 15.2071 123.716 20.869 126.489 27.4276C127.098 28.8683 127.685 30.3213 128.432 31.6982C129.261 33.2259 130.326 34.6466 130.935 36.2859C131.479 37.7478 131.57 39.3339 130.602 40.6401C129.922 41.5585 128.525 41.7657 127.93 42.6058C127.629 43.0294 127.66 43.4325 128.32 43.5587C129.002 43.6889 129.327 42.9282 129.818 42.623C131.038 41.8633 132.76 42.5108 133.994 42.9421C136.92 43.9651 139.211 45.8026 140.962 48.3492C142.638 50.7867 143.751 53.5558 144.857 56.2815C145.555 58.0011 146.22 59.7094 146.604 61.5312C146.749 62.2165 146.95 64.0746 145.867 63.2604C145.428 62.9304 144.8 65.4352 144.918 65.834C145.33 67.2212 146.799 68.5218 147.664 69.6451C149.696 72.2854 151.058 75.2431 152.491 78.2294C155.597 84.696 159.056 90.9738 162.378 97.3285C169.145 110.269 176.539 122.713 184.296 135.083C188.139 141.211 192.1 147.235 196.208 153.189C198.021 155.816 199.839 158.445 201.612 161.1C203.119 163.355 204.607 165.867 204.219 168.682C203.864 171.259 202.333 173.329 199.856 174.172C198.529 174.624 196.954 175.145 195.534 175.006C193.981 174.854 192.611 173.816 191.316 173.036C185.368 169.451 179.418 165.869 173.466 162.291C166.809 158.289 160.721 153.537 154.37 149.088C151.138 146.824 147.806 144.784 144.439 142.734C143.681 142.273 140.24 138.967 139.511 139.418Z" fill="#666875"/>
<path fill-rule="evenodd" clip-rule="evenodd" d="M81.8716 150.811C80.2457 153.205 78.5357 155.455 76.247 157.271C73.8358 159.185 71.3144 160.735 68.6222 162.22C63.8745 164.838 57.5105 167.157 51.9961 165.97C50.4279 165.633 47.9191 164.26 49.2824 162.301C49.9677 161.317 51.4376 161.574 52.4782 161.628C54.1546 161.715 55.6206 161.811 57.2269 161.247C60.1784 160.21 63.15 159.232 66.0321 158.012C68.8235 156.829 71.2715 155.208 73.8325 153.615C76.2344 152.122 78.0665 150.334 80.1766 148.528C80.7543 148.033 81.7478 147.168 82.2943 148.13C82.6894 148.825 82.0881 150.131 81.8716 150.811Z" fill="#666875"/>
<path fill-rule="evenodd" clip-rule="evenodd" d="M147.574 35.8237C147.393 36.8606 146.901 38.9239 145.442 38.642C143.581 38.2827 144.498 34.639 144.469 33.4022C144.346 28.0127 142.589 22.8303 139.987 18.1575C138.693 15.8344 137.099 13.6861 135.923 11.2965C135.695 10.8322 135.002 9.68071 135.505 9.17702C136.11 8.57213 137.269 9.48495 137.696 9.91662C139.343 11.5859 140.656 14.0884 141.927 16.0527C143.626 18.6749 145.126 21.4447 146.203 24.3852C147.503 27.937 148.234 32.0565 147.574 35.8237Z" fill="#666875"/>
<path fill-rule="evenodd" clip-rule="evenodd" d="M151.056 18.5886C151.23 19.5233 152.081 22.0663 150.564 22.2918C148.844 22.5475 148.31 18.3104 147.833 17.1878C147.581 16.596 146.24 13.9897 146.939 13.4223C148.394 12.2412 150.711 17.8367 151.056 18.5886Z" fill="#666875"/>
<path fill-rule="evenodd" clip-rule="evenodd" d="M70.1233 144.704C68.4911 146.191 66.5962 146.104 64.5359 145.962C63.4897 145.89 61.0669 145.271 62.7506 143.973C63.6301 143.296 70.5307 142.829 70.1233 144.704Z" fill="#666875"/>
<path fill-rule="evenodd" clip-rule="evenodd" d="M197.309 171.934C197.425 171.703 198.404 170.595 198.615 171.043C198.815 171.465 197.567 171.921 197.309 171.934Z" fill="#666875"/>
<path fill-rule="evenodd" clip-rule="evenodd" d="M67.4844 89.72C67.2835 90.134 66.4451 89.7724 66.1562 89.8352C66.5487 88.9948 67.0152 89.1748 67.4844 89.72Z" fill="#666875"/>
<path fill-rule="evenodd" clip-rule="evenodd" d="M130.57 45.7617C130.483 46.0938 130.396 46.4258 130.309 46.7578C130.175 46.5091 130.04 46.2604 129.906 46.0114C130.127 45.9284 130.349 45.8451 130.57 45.7617Z" fill="#666875"/>
<path fill-rule="evenodd" clip-rule="evenodd" d="M132.173 108.494C134.268 108.705 136.37 108.812 138.473 108.877C140.248 108.931 140.977 108.596 141.204 106.75C141.473 104.563 141.565 102.356 141.833 100.168C141.955 99.1735 142.919 97.187 141.758 96.6548C140.784 96.2088 139.266 96.8477 138.246 96.9227C137.11 97.0064 135.396 96.6601 134.392 97.3334C133.319 98.0533 133.553 100.574 133.37 101.757C133.021 104.013 132.601 106.253 132.173 108.494ZM131.174 97.87C129.275 98.0134 127.371 98.1266 125.477 98.3289C124.635 98.4192 122.929 98.8359 122.219 98.2226C120.552 96.7839 126.782 96.2789 127.489 96.1653C128.681 95.9741 130.719 96.2281 131.483 95.1035C132.238 93.9912 132.047 92.1222 132.243 90.8309C132.537 88.8875 132.873 86.9468 133.069 84.9908C133.135 84.3334 133.041 82.1616 133.735 81.8389C135.331 81.0971 134.829 88.7408 134.803 89.3145C134.758 90.301 134.709 91.2921 134.571 92.2703C134.494 92.8218 134.221 93.5675 134.389 94.1214C134.87 95.7095 137.604 94.7937 138.849 94.6669C140.244 94.5248 142.399 95.0653 142.86 93.3437C143.441 91.1802 143.356 88.7232 143.572 86.4973C143.631 85.8817 143.786 81.2844 144.921 81.6406C146.188 82.0387 145.693 85.8803 145.682 86.8695C145.669 87.9857 145.673 89.1027 145.597 90.217C145.53 91.2181 145.247 92.4449 145.456 93.4367C145.822 95.1756 147.884 94.2508 148.482 95.6341C149.051 96.9486 145.952 95.918 145.373 96.3695C144.509 97.0439 144.716 99.8615 144.593 100.848C144.322 103.015 143.802 105.265 143.632 107.426C143.499 109.131 144.87 108.905 146.265 108.782C147.462 108.676 148.777 108.391 149.976 108.551C150.939 108.679 152.286 109.567 150.883 110.157C148.69 111.082 144.223 109.194 143.121 112C142.914 112.529 141.946 118.668 140.731 115.638C140.223 114.371 141.467 112.384 140.14 111.413C139.681 111.077 138.996 111.136 138.462 111.099C137.148 111.007 135.826 110.976 134.51 110.949C133.197 110.921 132.018 110.657 131.511 112.095C131.116 113.215 131.16 114.469 130.844 115.615C130.607 116.474 129.831 117.978 129.025 116.573C128.495 115.649 128.901 114.036 129.005 113.032C129.057 112.529 129.357 111.489 128.976 111.067C128.566 110.613 127.47 110.859 126.952 110.9C125.457 111.018 122.673 111.738 121.528 110.382C120.571 109.247 122.561 109.225 123.344 109.149C124.15 109.07 124.957 108.997 125.762 108.912C126.649 108.818 127.823 108.943 128.658 108.665C130.06 108.198 129.96 106.293 130.052 105.056C130.232 102.642 130.775 100.256 131.174 97.87Z" fill="#666875"/>
<path fill-rule="evenodd" clip-rule="evenodd" d="M155.805 103.027C155.691 104.422 155.54 105.985 155.09 107.31C154.749 108.311 154.062 108.616 153.827 107.341C153.679 106.532 154.666 101.977 155.805 103.027Z" fill="#666875"/>
<path fill-rule="evenodd" clip-rule="evenodd" d="M67.2945 93.8471C66.7353 93.4457 64.0874 91.3343 66.0012 91.251C66.9784 91.2081 69.0838 92.8155 69.1442 93.7073C69.1595 93.9324 68.678 94.049 68.7043 94.2668C68.7541 94.6815 69.368 94.8777 69.5659 95.2075C70.0018 95.9346 69.8209 97.3713 69.2578 98.0626C67.9735 99.6391 66.5474 96.9702 67.5415 96.4466C67.32 96.5631 64.347 95.0521 64.2354 94.7107C63.6238 92.8404 67.144 94.6025 67.2945 93.8471Z" fill="#666875"/>
<path fill-rule="evenodd" clip-rule="evenodd" d="M71.9615 101.207C71.2825 101.228 69.9185 101.181 69.4098 100.696C68.4642 99.7949 70.3086 99.6753 70.8482 99.2553C71.6045 98.6673 71.753 96.7541 72.9403 97.9378C74.118 99.1122 73.0824 100.478 71.9615 101.207Z" fill="#666875"/>
<path fill-rule="evenodd" clip-rule="evenodd" d="M62.1719 96.2391C63.3997 96.0592 66.1314 98.7061 64.8059 98.8821C63.9287 98.9986 62.3635 96.9463 62.1719 96.2391Z" fill="#666875"/>
</svg>
