<svg width="179" height="142" viewBox="0 0 179 142" fill="none" xmlns="http://www.w3.org/2000/svg">
<rect x="0.5" width="178" height="142" fill="#1F1D2C"/>
<path fill-rule="evenodd" clip-rule="evenodd" d="M45.356 95.1399H110.148C110.515 95.1399 110.872 95.1005 111.216 95.0256C111.56 95.1005 111.917 95.1399 112.284 95.1399H149.308C152.061 95.1399 154.292 92.9148 154.292 90.1699C154.292 87.4251 152.061 85.1999 149.308 85.1999H145.036C142.283 85.1999 140.052 82.9748 140.052 80.2299C140.052 77.4851 142.283 75.2599 145.036 75.2599H158.564C161.317 75.2599 163.548 73.0348 163.548 70.2899C163.548 67.5451 161.317 65.3199 158.564 65.3199H142.9C145.653 65.3199 147.884 63.0948 147.884 60.3499C147.884 57.6051 145.653 55.3799 142.9 55.3799H97.332C100.085 55.3799 102.316 53.1548 102.316 50.4099C102.316 47.6651 100.085 45.4399 97.332 45.4399H56.748C53.9954 45.4399 51.764 47.6651 51.764 50.4099C51.764 53.1548 53.9954 55.3799 56.748 55.3799H28.268C25.5154 55.3799 23.284 57.6051 23.284 60.3499C23.284 63.0948 25.5154 65.3199 28.268 65.3199H46.068C48.8206 65.3199 51.052 67.5451 51.052 70.2899C51.052 73.0348 48.8206 75.2599 46.068 75.2599H17.588C14.8354 75.2599 12.604 77.4851 12.604 80.2299C12.604 82.9748 14.8354 85.1999 17.588 85.1999H45.356C42.6034 85.1999 40.372 87.4251 40.372 90.1699C40.372 92.9148 42.6034 95.1399 45.356 95.1399ZM161.412 95.1399C164.165 95.1399 166.396 92.9148 166.396 90.1699C166.396 87.4251 164.165 85.1999 161.412 85.1999C158.659 85.1999 156.428 87.4251 156.428 90.1699C156.428 92.9148 158.659 95.1399 161.412 95.1399Z" fill="#262837"/>
<g opacity="0.7">
<path d="M123.32 31.95V36.21" stroke="#FFB1A3" stroke-width="2.5" stroke-linecap="round" stroke-linejoin="round"/>
<path d="M123.32 41.8899V46.1499" stroke="#FFB1A3" stroke-width="2.5" stroke-linecap="round" stroke-linejoin="round"/>
<path d="M116.2 39.05H120.472" stroke="#FFB1A3" stroke-width="2.5" stroke-linecap="round" stroke-linejoin="round"/>
<path d="M126.168 39.05H130.44" stroke="#FFB1A3" stroke-width="2.5" stroke-linecap="round" stroke-linejoin="round"/>
</g>
<g opacity="0.7">
<path d="M64.2239 105.08V107.92" stroke="#FFB1A3" stroke-width="2.5" stroke-linecap="round" stroke-linejoin="round"/>
<path d="M64.2239 113.6V116.44" stroke="#FFB1A3" stroke-width="2.5" stroke-linecap="round" stroke-linejoin="round"/>
<path d="M58.528 110.76H61.376" stroke="#FFB1A3" stroke-width="2.5" stroke-linecap="round" stroke-linejoin="round"/>
<path d="M67.0719 110.76H69.9199" stroke="#FFB1A3" stroke-width="2.5" stroke-linecap="round" stroke-linejoin="round"/>
</g>
<g opacity="0.7">
<path fill-rule="evenodd" clip-rule="evenodd" d="M114.927 93.0997C115.917 91.8905 116.807 90.6259 117.597 89.3171C119.334 86.4385 120.586 83.3458 121.351 80.1572C122.125 76.9324 122.401 73.6096 122.177 70.311C121.981 67.4327 121.405 64.5727 120.447 61.8125C119.497 59.074 118.171 56.4336 116.467 53.9707C115.452 52.503 114.303 51.0984 113.02 49.7736C111.136 47.8284 109.07 46.1655 106.874 44.7859C104.515 43.3035 102.007 42.148 99.4157 41.3209C96.1704 40.2849 92.7948 39.7638 89.4188 39.76C86.792 39.7571 84.1649 40.0673 81.5986 40.6919C78.7095 41.395 75.8975 42.4966 73.2498 43.9982C70.9223 45.3182 68.7218 46.9474 66.7075 48.8868C64.1762 51.3241 62.1258 54.0716 60.5581 57.012C59.0233 59.8907 57.9513 62.9544 57.3437 66.093C56.7177 69.3265 56.5847 72.6395 56.9467 75.9116C57.4158 80.1527 58.7163 84.3251 60.8523 88.1668C62.2191 90.6249 63.928 92.9477 65.98 95.0665C69.2377 98.43 73.041 100.95 77.1144 102.62C82.0681 104.652 87.4214 105.427 92.6789 104.938C97.0914 104.527 101.436 103.225 105.421 101.026" fill="#262837"/>
<path d="M114.927 93.0997C115.917 91.8905 116.807 90.6259 117.597 89.3171C119.334 86.4385 120.586 83.3458 121.351 80.1572C122.125 76.9325 122.401 73.6096 122.177 70.311C121.981 67.4327 121.405 64.5727 120.447 61.8125C119.497 59.074 118.171 56.4336 116.467 53.9707C115.452 52.503 114.303 51.0984 113.02 49.7736C111.136 47.8284 109.07 46.1655 106.874 44.7859C104.515 43.3035 102.007 42.148 99.4157 41.3209C96.1704 40.2849 92.7948 39.7638 89.4188 39.76C86.792 39.7571 84.1649 40.0673 81.5986 40.6919C78.7095 41.395 75.8975 42.4966 73.2498 43.9982C70.9223 45.3182 68.7218 46.9474 66.7075 48.8868C64.1762 51.3241 62.1258 54.0716 60.5581 57.012C59.0233 59.8907 57.9513 62.9544 57.3437 66.093C56.7177 69.3265 56.5847 72.6395 56.9467 75.9116C57.4158 80.1527 58.7163 84.3251 60.8523 88.1668C62.2191 90.6249 63.928 92.9477 65.98 95.0665C69.2377 98.43 73.041 100.95 77.1144 102.62C82.0681 104.652 87.4214 105.427 92.6789 104.938C97.0914 104.527 101.436 103.225 105.421 101.026" stroke="#EB7C68" stroke-width="2.5" stroke-linecap="round" stroke-linejoin="round"/>
</g>
<g opacity="0.7">
<path fill-rule="evenodd" clip-rule="evenodd" d="M107.799 99.6685C109.869 98.3407 111.708 96.6842 112.905 95.3468L107.799 99.6685Z" fill="#262837"/>
<path d="M107.799 99.6685C109.869 98.3407 111.708 96.6842 112.905 95.3468" stroke="#EB7C68" stroke-width="2.5" stroke-linecap="round"/>
</g>
<path d="M119.404 74.2782C119.2 74.2818 118.996 74.2836 118.792 74.2836C100.811 74.2836 86.0885 60.3048 84.8548 42.6001C70.5431 44.8512 59.5959 57.2634 59.5959 72.2379C59.5959 88.8077 72.9997 102.24 89.534 102.24C105.384 102.24 118.357 89.8964 119.404 74.2782Z" fill="#1F1D2C"/>
<path opacity="0.7" fill-rule="evenodd" clip-rule="evenodd" d="M78.1246 71.2647C77.2536 70.4627 75.9026 70.5243 75.1069 71.4023C74.3113 72.2803 74.3724 73.6422 75.2434 74.4442L85.2961 83.7011C86.5155 84.824 88.407 84.7378 89.5208 83.5086C89.5674 83.4564 89.5674 83.4564 89.6124 83.4027L103.958 66.0098C104.713 65.0954 104.589 63.7378 103.682 62.9776C102.774 62.2173 101.428 62.3422 100.673 63.2566L87.186 79.6088L78.1246 71.2647Z" fill="#262837" stroke="#EB7C68" stroke-width="2.5" stroke-linecap="round"/>
<g opacity="0.7">
<path fill-rule="evenodd" clip-rule="evenodd" d="M79.4067 45.7336C78.0181 46.2531 76.6618 46.8842 75.3515 47.6274C73.3153 48.7823 71.3902 50.2077 69.6281 51.9046C68.9057 52.6002 68.2282 53.3246 67.5954 54.0744M65.6374 56.6851C65.1343 57.4432 64.6713 58.2205 64.2484 59.0137C63.9361 59.5996 63.6458 60.1942 63.3773 60.7964" fill="#262837"/>
<path d="M79.8464 46.9024C80.4937 46.6603 80.8215 45.9407 80.5787 45.2953C80.3358 44.6498 79.6142 44.3228 78.9669 44.5649L79.8464 46.9024ZM75.3515 47.6274L75.9704 48.7125L75.3515 47.6274ZM69.6281 51.9046L68.7585 51.0066L69.6281 51.9046ZM66.6377 53.2706C66.1925 53.7981 66.2605 54.5855 66.7895 55.0294C67.3185 55.4733 68.1081 55.4056 68.5532 54.8782L66.6377 53.2706ZM66.6813 57.374C67.0628 56.7991 66.9047 56.0246 66.3282 55.6441C65.7516 55.2637 64.975 55.4213 64.5935 55.9962L66.6813 57.374ZM64.2484 59.0137L65.3538 59.5997L64.2484 59.0137ZM62.2335 60.2892C61.9526 60.9192 62.2371 61.6569 62.8688 61.937C63.5005 62.2171 64.2403 61.9335 64.5211 61.3036L62.2335 60.2892ZM78.9669 44.5649C77.5171 45.1072 76.1008 45.7663 74.7325 46.5424L75.9704 48.7125C77.2228 48.0021 78.5192 47.3989 79.8464 46.9024L78.9669 44.5649ZM74.7325 46.5424C72.606 47.7485 70.5966 49.2365 68.7585 51.0066L70.4977 52.8025C72.1838 51.1788 74.0245 49.8161 75.9704 48.7125L74.7325 46.5424ZM68.7585 51.0066C68.0051 51.7321 67.2981 52.488 66.6377 53.2706L68.5532 54.8782C69.1583 54.1612 69.8064 53.4682 70.4977 52.8025L68.7585 51.0066ZM64.5935 55.9962C64.0682 56.7878 63.5847 57.5994 63.1431 58.4278L65.3538 59.5997C65.7579 58.8415 66.2004 58.0986 66.6813 57.374L64.5935 55.9962ZM63.1431 58.4278C62.817 59.0396 62.5138 59.6605 62.2335 60.2892L64.5211 61.3036C64.7777 60.728 65.0553 60.1597 65.3538 59.5997L63.1431 58.4278Z" fill="#FFB1A3"/>
</g>
</svg>
